<?xml version="1.0" encoding="UTF-8" standalone="no"?>
<svg width="3060px" height="3960px" viewBox="0 0 3060 3960"
 xmlns="http://www.w3.org/2000/svg" xmlns:xlink="http://www.w3.org/1999/xlink" version="1.2" baseProfile="tiny">
<title>Hot Cross Buns L1</title>
<desc>Generated by MuseScore 4.0.2</desc>
<path class="" fill="#ffffff" fill-rule="evenodd" d="M0,0 L3060,0 L3060,3960 L0,3960 L0,0 "/>
<polyline class="StaffLines" fill="none" stroke="#000000" stroke-width="3.92" stroke-linejoin="bevel" points="390.798,818.478 2847.4,818.478"/>
<polyline class="StaffLines" fill="none" stroke="#000000" stroke-width="3.92" stroke-linejoin="bevel" points="390.798,854.118 2847.4,854.118"/>
<polyline class="StaffLines" fill="none" stroke="#000000" stroke-width="3.92" stroke-linejoin="bevel" points="390.798,889.758 2847.4,889.758"/>
<polyline class="StaffLines" fill="none" stroke="#000000" stroke-width="3.92" stroke-linejoin="bevel" points="390.798,925.398 2847.4,925.398"/>
<polyline class="StaffLines" fill="none" stroke="#000000" stroke-width="3.92" stroke-linejoin="bevel" points="390.798,961.038 2847.4,961.038"/>
<polyline class="StaffLines" fill="none" stroke="#000000" stroke-width="3.92" stroke-linejoin="bevel" points="212.598,1477.82 2847.4,1477.82"/>
<polyline class="StaffLines" fill="none" stroke="#000000" stroke-width="3.92" stroke-linejoin="bevel" points="212.598,1513.46 2847.4,1513.46"/>
<polyline class="StaffLines" fill="none" stroke="#000000" stroke-width="3.92" stroke-linejoin="bevel" points="212.598,1549.1 2847.4,1549.1"/>
<polyline class="StaffLines" fill="none" stroke="#000000" stroke-width="3.92" stroke-linejoin="bevel" points="212.598,1584.74 2847.4,1584.74"/>
<polyline class="StaffLines" fill="none" stroke="#000000" stroke-width="3.92" stroke-linejoin="bevel" points="212.598,1620.38 2847.4,1620.38"/>
<path class="Text" d="M2610.38,531.889 L2580.43,531.889 L2579.68,545.795 L2581.82,545.795 C2582.52,540.748 2583.88,534.248 2590.27,534.248 C2591.93,534.248 2592.63,534.795 2592.63,536.045 L2592.63,561.842 C2592.63,564.405 2592.63,564.498 2592.32,564.951 C2591.93,565.451 2590.98,565.655 2588.13,565.655 L2586.82,565.655 L2586.82,567.998 L2603.98,567.998 L2603.98,565.655 L2602.68,565.655 C2599.88,565.655 2598.93,565.451 2598.52,564.951 C2598.23,564.498 2598.23,564.405 2598.23,561.842 L2598.23,536.045 C2598.23,534.795 2598.93,534.248 2600.57,534.248 C2606.98,534.248 2608.27,540.795 2608.98,545.795 L2611.13,545.795 L2610.38,531.889 M2622.93,544.701 L2614.07,545.248 L2614.07,547.405 L2616.12,547.405 C2618.02,547.451 2618.27,547.748 2618.27,549.905 L2618.27,564.201 C2618.23,564.951 2618.18,565.248 2617.98,565.498 C2617.62,565.951 2616.62,566.155 2614.48,566.201 L2614.27,566.201 L2614.27,567.998 L2627.62,567.998 L2627.62,566.201 L2626.73,566.201 C2623.37,566.092 2622.93,565.842 2622.93,564.045 L2622.93,561.342 C2622.98,552.951 2625.98,546.545 2629.87,546.342 C2629.18,547.155 2628.98,547.655 2628.98,548.592 C2628.98,550.201 2630.12,551.342 2631.73,551.342 C2633.57,551.342 2634.77,549.998 2634.77,547.998 C2634.77,545.545 2633.07,543.951 2630.43,543.951 C2627.27,543.951 2624.57,546.451 2622.93,550.905 L2622.93,544.701 M2657.4,551.905 C2657.4,548.748 2656.85,547.155 2655.4,545.951 C2653.76,544.592 2651.31,543.951 2648.1,543.951 C2642.46,543.951 2638.35,546.592 2638.35,550.248 C2638.35,552.092 2639.51,553.295 2641.26,553.295 C2642.85,553.295 2643.96,552.248 2643.96,550.748 C2643.96,550.092 2643.71,549.405 2643.21,548.701 C2642.9,548.342 2642.85,548.248 2642.85,547.998 C2642.85,546.998 2644.85,546.092 2647.26,546.092 C2648.85,546.092 2650.6,546.592 2651.4,547.342 C2652.35,548.155 2652.71,549.342 2652.71,551.592 L2652.71,553.545 C2647.51,554.451 2645.85,554.842 2643.4,555.795 C2639.06,557.405 2637.01,559.701 2637.01,562.905 C2637.01,566.498 2639.81,568.748 2644.26,568.748 C2647.71,568.748 2650.81,567.342 2652.96,564.795 C2653.76,567.342 2655.01,568.342 2657.35,568.342 C2659.6,568.342 2661.96,566.905 2661.96,565.451 C2661.96,565.092 2661.76,564.842 2661.46,564.842 C2661.26,564.842 2661.06,564.905 2660.71,565.045 C2660.01,565.342 2659.71,565.405 2659.31,565.405 C2657.9,565.405 2657.4,564.498 2657.4,561.951 L2657.4,551.905 M2652.71,557.998 C2652.71,560.998 2652.56,561.701 2651.71,562.998 C2650.46,564.842 2648.21,566.092 2646.01,566.092 C2643.71,566.092 2642.06,564.451 2642.06,562.201 C2642.06,560.092 2643.1,558.592 2645.31,557.545 C2646.85,556.842 2648.81,556.342 2652.71,555.701 L2652.71,557.998 M2681.6,568.342 L2690.31,567.998 L2690.31,565.842 L2689.4,565.842 C2686.56,565.701 2686.31,565.405 2686.31,562.201 L2686.31,531.139 L2676.51,531.701 L2676.51,533.842 L2679.45,533.842 C2681.35,533.889 2681.6,534.201 2681.6,536.342 L2681.6,547.655 C2679.76,545.092 2677.6,543.951 2674.7,543.951 C2669.06,543.951 2664.76,549.405 2664.76,556.592 C2664.76,563.701 2668.9,568.748 2674.7,568.748 C2677.85,568.748 2680.01,567.405 2681.6,564.405 L2681.6,568.342 M2675.7,546.655 C2677.76,546.655 2679.7,548.155 2680.6,550.451 C2681.26,551.951 2681.56,553.998 2681.56,556.451 C2681.56,562.295 2679.26,566.045 2675.65,566.045 C2672.1,566.045 2670.01,562.748 2670.01,557.201 C2670.01,554.201 2670.31,551.951 2670.95,550.295 C2671.81,548.045 2673.65,546.655 2675.7,546.655 M2699.24,532.248 C2697.63,532.248 2696.34,533.545 2696.34,535.139 C2696.34,536.748 2697.63,538.045 2699.2,538.045 C2700.84,538.045 2702.13,536.748 2702.13,535.139 C2702.13,533.545 2700.84,532.248 2699.24,532.248 M2701.59,544.701 L2692.2,545.248 L2692.2,547.405 L2694.74,547.405 C2696.63,547.451 2696.88,547.748 2696.88,549.905 L2696.88,564.201 C2696.84,564.951 2696.79,565.248 2696.59,565.498 C2696.24,565.951 2695.29,566.155 2693.13,566.201 L2692.79,566.201 L2692.79,567.998 L2705.74,567.998 L2705.74,566.201 L2705.38,566.201 C2702.04,566.092 2701.59,565.842 2701.59,564.045 L2701.59,544.701 M2716.73,544.701 L2716.73,534.795 L2714.68,534.795 C2714.18,541.295 2711.98,544.592 2707.93,544.905 L2707.93,546.842 L2712.02,546.842 L2712.02,559.592 C2712.02,563.092 2712.12,564.342 2712.62,565.498 C2713.43,567.592 2715.43,568.748 2718.32,568.748 C2722.82,568.748 2725.73,565.342 2725.73,560.045 C2725.73,559.748 2725.73,559.405 2725.68,558.905 L2723.57,558.905 C2723.43,563.405 2722.12,565.701 2719.68,565.701 C2718.52,565.701 2717.52,565.092 2717.18,564.248 C2716.87,563.545 2716.73,562.295 2716.73,560.498 L2716.73,546.842 L2724.07,546.842 L2724.07,544.701 L2716.73,544.701 M2734.41,532.248 C2732.81,532.248 2731.51,533.545 2731.51,535.139 C2731.51,536.748 2732.81,538.045 2734.37,538.045 C2736.01,538.045 2737.31,536.748 2737.31,535.139 C2737.31,533.545 2736.01,532.248 2734.41,532.248 M2736.76,544.701 L2727.37,545.248 L2727.37,547.405 L2729.91,547.405 C2731.81,547.451 2732.06,547.748 2732.06,549.905 L2732.06,564.201 C2732.01,564.951 2731.96,565.248 2731.76,565.498 C2731.41,565.951 2730.46,566.155 2728.31,566.201 L2727.96,566.201 L2727.96,567.998 L2740.91,567.998 L2740.91,566.201 L2740.56,566.201 C2737.21,566.092 2736.76,565.842 2736.76,564.045 L2736.76,544.701 M2754.79,543.951 C2748.65,543.951 2743.9,549.405 2743.9,556.405 C2743.9,563.248 2748.7,568.748 2754.7,568.748 C2760.7,568.748 2765.49,563.248 2765.49,556.342 C2765.49,549.498 2760.7,543.951 2754.79,543.951 M2754.79,546.092 C2758.29,546.092 2760.24,549.748 2760.24,556.342 C2760.24,562.998 2758.29,566.592 2754.7,566.592 C2751.1,566.592 2749.15,562.998 2749.15,556.405 C2749.15,549.592 2751.04,546.092 2754.79,546.092 M2777.18,544.701 L2768.52,545.248 L2768.52,547.405 L2770.34,547.405 C2772.23,547.451 2772.48,547.748 2772.48,549.905 L2772.48,564.201 C2772.43,564.951 2772.38,565.248 2772.18,565.498 C2771.84,565.951 2770.88,566.155 2768.73,566.201 L2768.52,566.201 L2768.52,567.998 L2781.18,567.998 L2781.18,566.201 L2780.98,566.201 C2777.63,566.092 2777.18,565.842 2777.18,564.045 L2777.18,556.655 C2777.18,554.201 2777.52,551.951 2778.09,550.795 C2779.13,548.545 2781.38,546.998 2783.52,546.998 C2784.84,546.998 2786.34,547.701 2787.09,548.748 C2787.84,549.842 2788.18,551.342 2788.18,553.748 L2788.18,564.201 C2788.13,564.951 2788.09,565.248 2787.88,565.498 C2787.52,565.951 2786.52,566.155 2784.38,566.201 L2784.18,566.201 L2784.18,567.998 L2796.84,567.998 L2796.84,566.201 L2796.63,566.201 C2793.34,566.092 2792.88,565.842 2792.88,564.045 L2792.88,553.998 C2792.88,550.405 2792.73,549.498 2791.84,547.795 C2790.59,545.405 2788.09,543.951 2785.09,543.951 C2781.84,543.951 2779.38,545.451 2777.18,548.748 L2777.18,544.701 M2820.32,551.905 C2820.32,548.748 2819.77,547.155 2818.32,545.951 C2816.68,544.592 2814.23,543.951 2811.02,543.951 C2805.38,543.951 2801.27,546.592 2801.27,550.248 C2801.27,552.092 2802.43,553.295 2804.18,553.295 C2805.77,553.295 2806.88,552.248 2806.88,550.748 C2806.88,550.092 2806.63,549.405 2806.13,548.701 C2805.82,548.342 2805.77,548.248 2805.77,547.998 C2805.77,546.998 2807.77,546.092 2810.18,546.092 C2811.77,546.092 2813.52,546.592 2814.32,547.342 C2815.27,548.155 2815.63,549.342 2815.63,551.592 L2815.63,553.545 C2810.43,554.451 2808.77,554.842 2806.32,555.795 C2801.98,557.405 2799.93,559.701 2799.93,562.905 C2799.93,566.498 2802.73,568.748 2807.18,568.748 C2810.63,568.748 2813.73,567.342 2815.88,564.795 C2816.68,567.342 2817.93,568.342 2820.27,568.342 C2822.52,568.342 2824.88,566.905 2824.88,565.451 C2824.88,565.092 2824.68,564.842 2824.38,564.842 C2824.18,564.842 2823.98,564.905 2823.63,565.045 C2822.93,565.342 2822.63,565.405 2822.23,565.405 C2820.82,565.405 2820.32,564.498 2820.32,561.951 L2820.32,551.905 M2815.63,557.998 C2815.63,560.998 2815.48,561.701 2814.63,562.998 C2813.38,564.842 2811.13,566.092 2808.93,566.092 C2806.63,566.092 2804.98,564.451 2804.98,562.201 C2804.98,560.092 2806.02,558.592 2808.23,557.545 C2809.77,556.842 2811.73,556.342 2815.63,555.701 L2815.63,557.998 M2835.73,531.139 L2826.48,531.701 L2826.48,533.842 L2828.93,533.842 C2830.77,533.889 2831.02,534.201 2831.02,536.342 L2831.02,564.201 C2830.98,564.951 2830.93,565.248 2830.73,565.498 C2830.37,565.951 2829.43,566.155 2827.27,566.201 L2826.93,566.201 L2826.93,567.998 L2839.87,567.998 L2839.87,566.201 L2839.52,566.201 C2836.18,566.092 2835.73,565.842 2835.73,564.045 L2835.73,531.139 "/>
<path class="Text" d="M1194.22,256.426 L1194.22,281.067 C1194.22,286.676 1194.22,286.895 1193.57,287.895 C1192.69,288.989 1190.6,289.426 1184.33,289.426 L1182.35,289.426 L1182.35,294.598 L1218.43,294.598 L1218.43,289.426 L1216.44,289.426 C1210.18,289.426 1208.08,288.989 1207.21,287.895 C1206.55,286.895 1206.55,286.786 1206.55,281.067 L1206.55,228.708 C1206.55,222.989 1206.55,222.88 1207.21,221.895 C1208.19,220.676 1210.18,220.348 1216.44,220.348 L1218.43,220.348 L1218.43,215.176 L1182.79,215.176 L1182.79,220.348 L1184.33,220.348 C1190.6,220.348 1192.58,220.676 1193.57,221.895 C1194.22,222.88 1194.22,223.098 1194.22,228.708 L1194.22,250.489 L1157.38,250.489 L1157.38,228.708 C1157.38,223.098 1157.38,222.88 1158.15,221.895 C1159.04,220.676 1161,220.348 1167.29,220.348 L1169.36,220.348 L1169.36,215.176 L1133.18,215.176 L1133.18,220.348 L1135.16,220.348 C1141.43,220.348 1143.41,220.676 1144.4,221.895 C1145.05,222.88 1145.05,223.098 1145.05,228.708 L1145.05,281.067 C1145.05,286.567 1145.05,286.895 1144.4,287.895 C1143.52,288.989 1141.43,289.426 1135.16,289.426 L1133.18,289.426 L1133.18,294.598 L1169.36,294.598 L1169.36,289.426 L1167.29,289.426 C1161,289.317 1159.04,288.989 1158.15,287.895 C1157.38,286.895 1157.38,286.676 1157.38,281.067 L1157.38,256.426 L1194.22,256.426 M1249.33,241.692 C1235.8,241.692 1225.35,253.676 1225.35,269.083 C1225.35,284.145 1235.91,296.255 1249.11,296.255 C1262.32,296.255 1272.88,284.145 1272.88,268.973 C1272.88,253.895 1262.32,241.692 1249.33,241.692 M1249.33,246.411 C1257.04,246.411 1261.32,254.442 1261.32,268.973 C1261.32,283.598 1257.04,291.52 1249.11,291.52 C1241.19,291.52 1236.91,283.598 1236.91,269.083 C1236.91,254.114 1241.08,246.411 1249.33,246.411 M1295.74,243.333 L1295.74,221.551 L1291.22,221.551 C1290.13,235.864 1285.29,243.114 1276.38,243.786 L1276.38,248.067 L1285.4,248.067 L1285.4,276.114 C1285.4,283.817 1285.61,286.567 1286.71,289.098 C1288.47,293.723 1292.88,296.255 1299.25,296.255 C1309.16,296.255 1315.54,288.77 1315.54,277.114 C1315.54,276.442 1315.54,275.676 1315.43,274.583 L1310.8,274.583 C1310.47,284.473 1307.61,289.536 1302.22,289.536 C1299.69,289.536 1297.49,288.223 1296.72,286.348 C1296.07,284.801 1295.74,282.051 1295.74,278.098 L1295.74,248.067 L1311.91,248.067 L1311.91,243.333 L1295.74,243.333 M1418.05,214.411 L1413.86,214.411 L1409.46,220.895 C1401.44,215.067 1397.36,213.52 1389.77,213.52 C1379.32,213.52 1370.41,217.926 1363.05,226.723 C1356,235.083 1352.71,244.333 1352.71,255.661 C1352.71,279.411 1368.21,296.255 1389.88,296.255 C1407.49,296.255 1418.71,285.911 1421.24,267.426 L1416.07,266.551 C1413.1,282.942 1404.74,291.083 1391.21,291.083 C1374.93,291.083 1367.22,279.864 1367.22,256.098 C1367.22,243.551 1368.88,235.301 1372.61,228.708 C1376.02,222.551 1382.74,218.692 1389.88,218.692 C1397.58,218.692 1404.41,222.77 1408.58,229.801 C1410.68,233.442 1412.21,237.505 1414.85,246.192 L1419.69,246.192 L1418.05,214.411 M1448.94,243.333 L1429.47,244.551 L1429.47,249.286 L1433.97,249.286 C1438.16,249.395 1438.71,250.051 1438.71,254.786 L1438.71,286.239 C1438.6,287.895 1438.49,288.551 1438.05,289.098 C1437.29,290.083 1435.08,290.536 1430.35,290.645 L1429.91,290.645 L1429.91,294.598 L1459.29,294.598 L1459.29,290.645 L1457.3,290.645 C1449.93,290.411 1448.94,289.864 1448.94,285.911 L1448.94,279.973 C1449.05,261.489 1455.65,247.411 1464.22,246.973 C1462.69,248.723 1462.25,249.833 1462.25,251.911 C1462.25,255.442 1464.79,257.973 1468.3,257.973 C1472.36,257.973 1475,255.005 1475,250.598 C1475,245.208 1471.27,241.692 1465.44,241.692 C1458.5,241.692 1452.57,247.192 1448.94,256.973 L1448.94,243.333 M1503.16,241.692 C1489.63,241.692 1479.18,253.676 1479.18,269.083 C1479.18,284.145 1489.74,296.255 1502.94,296.255 C1516.15,296.255 1526.71,284.145 1526.71,268.973 C1526.71,253.895 1516.15,241.692 1503.16,241.692 M1503.16,246.411 C1510.86,246.411 1515.15,254.442 1515.15,268.973 C1515.15,283.598 1510.86,291.52 1502.94,291.52 C1495.02,291.52 1490.74,283.598 1490.74,269.083 C1490.74,254.114 1494.91,246.411 1503.16,246.411 M1573.33,242.13 L1569.47,242.13 L1566.29,246.083 C1562.33,243.005 1558.36,241.692 1552.86,241.692 C1543.19,241.692 1536.8,247.958 1536.8,257.645 C1536.8,267.973 1543.52,270.614 1552.32,272.708 L1558.15,274.036 C1566.83,276.114 1569.91,278.317 1569.91,282.723 C1569.91,287.895 1565.41,291.52 1559.02,291.52 C1549.68,291.52 1543.08,285.583 1540.44,274.583 L1536.04,274.583 L1536.04,295.364 L1539.88,295.364 L1543.74,290.864 C1548.24,294.489 1553.19,296.255 1558.8,296.255 C1569.58,296.255 1576.74,289.536 1576.74,279.301 C1576.74,274.473 1575.19,270.723 1572.11,268.192 C1569.47,265.895 1567.27,265.005 1560.57,263.583 L1555.07,262.364 C1549.02,261.051 1549.02,261.051 1547.04,259.942 C1544.61,258.848 1543.19,256.536 1543.19,254.114 C1543.19,249.614 1547.36,246.536 1553.41,246.536 C1562.44,246.536 1566.83,252.911 1569.47,260.614 L1573.33,260.614 L1573.33,242.13 M1623.82,242.13 L1619.96,242.13 L1616.77,246.083 C1612.82,243.005 1608.85,241.692 1603.35,241.692 C1593.68,241.692 1587.29,247.958 1587.29,257.645 C1587.29,267.973 1594,270.614 1602.8,272.708 L1608.63,274.036 C1617.32,276.114 1620.4,278.317 1620.4,282.723 C1620.4,287.895 1615.9,291.52 1609.5,291.52 C1600.16,291.52 1593.57,285.583 1590.93,274.583 L1586.52,274.583 L1586.52,295.364 L1590.36,295.364 L1594.22,290.864 C1598.72,294.489 1603.68,296.255 1609.29,296.255 C1620.07,296.255 1627.22,289.536 1627.22,279.301 C1627.22,274.473 1625.68,270.723 1622.6,268.192 C1619.96,265.895 1617.75,265.005 1611.05,263.583 L1605.55,262.364 C1599.5,261.051 1599.5,261.051 1597.52,259.942 C1595.1,258.848 1593.68,256.536 1593.68,254.114 C1593.68,249.614 1597.85,246.536 1603.9,246.536 C1612.93,246.536 1617.32,252.911 1619.96,260.614 L1623.82,260.614 L1623.82,242.13 M1665.71,215.176 L1665.71,220.348 L1667.69,220.348 C1673.96,220.458 1676.05,220.786 1676.93,221.895 C1677.6,222.88 1677.6,223.098 1677.6,228.708 L1677.6,281.067 C1677.6,286.676 1677.6,286.895 1676.93,287.895 C1676.05,288.989 1673.96,289.426 1667.69,289.426 L1665.71,289.426 L1665.71,294.598 L1705.65,294.598 C1724.68,294.598 1736.11,286.567 1736.11,273.036 C1736.11,262.036 1729.18,255.77 1714.11,253.13 C1719.4,252.036 1721.82,251.036 1724.68,248.942 C1729.18,245.536 1731.93,240.145 1731.93,234.645 C1731.93,227.505 1727.54,220.567 1721.15,217.817 C1717.19,216.051 1711.69,215.176 1705.21,215.176 L1665.71,215.176 M1689.91,250.926 L1689.91,225.848 C1689.91,221.551 1691.35,220.458 1697.18,220.348 L1701.57,220.348 C1712.35,220.348 1719.18,223.864 1719.18,235.864 C1719.18,246.755 1713.9,250.926 1699.71,250.926 L1689.91,250.926 M1689.91,256.098 L1699.6,256.098 C1716.43,256.098 1722.58,260.614 1722.58,272.708 C1722.58,287.442 1713.35,289.426 1700.91,289.426 L1696.29,289.426 C1690.79,289.426 1689.69,288.333 1689.91,282.505 L1689.91,256.098 M1787.13,295.364 L1807.16,294.598 L1807.16,289.864 L1804.41,289.864 C1798.02,289.645 1797.47,288.989 1797.47,281.833 L1797.47,243.333 L1776.8,244.551 L1776.8,249.286 L1782.41,249.286 C1786.58,249.395 1787.13,250.051 1787.13,254.786 L1787.13,268.301 C1787.13,277.88 1784.83,289.536 1772.72,289.536 C1769.32,289.536 1766.46,288.333 1765.02,286.13 C1763.6,284.036 1763.38,282.942 1763.38,276.895 L1763.38,243.333 L1744.13,244.551 L1744.13,249.286 L1748.3,249.286 C1752.49,249.395 1753.04,250.051 1753.04,254.786 L1753.04,278.536 C1753.04,284.145 1753.47,286.676 1755.13,289.208 C1758.1,293.723 1763.38,296.255 1769.97,296.255 C1777.24,296.255 1782.3,293.286 1787.13,286.239 L1787.13,295.364 M1831.02,243.333 L1811.99,244.551 L1811.99,249.286 L1815.96,249.286 C1820.13,249.395 1820.68,250.051 1820.68,254.786 L1820.68,286.239 C1820.57,287.895 1820.46,288.551 1820.02,289.098 C1819.25,290.083 1817.16,290.536 1812.43,290.645 L1811.99,290.645 L1811.99,294.598 L1839.82,294.598 L1839.82,290.645 L1839.38,290.645 C1832,290.411 1831.02,289.864 1831.02,285.911 L1831.02,269.63 C1831.02,264.239 1831.79,259.286 1833,256.755 C1835.32,251.801 1840.25,248.395 1844.99,248.395 C1847.85,248.395 1851.15,249.942 1852.8,252.255 C1854.46,254.661 1855.22,257.973 1855.22,263.255 L1855.22,286.239 C1855.11,287.895 1855,288.551 1854.57,289.098 C1853.79,290.083 1851.58,290.536 1846.86,290.645 L1846.43,290.645 L1846.43,294.598 L1874.25,294.598 L1874.25,290.645 L1873.82,290.645 C1866.55,290.411 1865.57,289.864 1865.57,285.911 L1865.57,263.801 C1865.57,255.88 1865.22,253.895 1863.25,250.161 C1860.5,244.88 1855,241.692 1848.4,241.692 C1841.25,241.692 1835.86,244.989 1831.02,252.255 L1831.02,243.333 M1919.13,242.13 L1915.27,242.13 L1912.08,246.083 C1908.13,243.005 1904.16,241.692 1898.66,241.692 C1888.99,241.692 1882.6,247.958 1882.6,257.645 C1882.6,267.973 1889.32,270.614 1898.11,272.708 L1903.94,274.036 C1912.63,276.114 1915.71,278.317 1915.71,282.723 C1915.71,287.895 1911.21,291.52 1904.82,291.52 C1895.47,291.52 1888.88,285.583 1886.24,274.583 L1881.83,274.583 L1881.83,295.364 L1885.68,295.364 L1889.54,290.864 C1894.04,294.489 1898.99,296.255 1904.6,296.255 C1915.38,296.255 1922.54,289.536 1922.54,279.301 C1922.54,274.473 1920.99,270.723 1917.91,268.192 C1915.27,265.895 1913.07,265.005 1906.36,263.583 L1900.86,262.364 C1894.82,261.051 1894.82,261.051 1892.83,259.942 C1890.41,258.848 1888.99,256.536 1888.99,254.114 C1888.99,249.614 1893.16,246.536 1899.21,246.536 C1908.24,246.536 1912.63,252.911 1915.27,260.614 L1919.13,260.614 L1919.13,242.13 "/>
<path class="MeasureNumber" d="M217.083,1391.23 C215.833,1391.98 215.473,1392.46 215.473,1393.26 C215.473,1394.02 216.114,1394.59 216.911,1394.59 C217.958,1394.59 218.551,1393.82 218.676,1392.34 C219.911,1391.34 221.239,1390.9 222.833,1390.9 C225.801,1390.9 227.442,1392.74 227.442,1396.05 C227.442,1401.26 224.083,1405.49 219.958,1405.49 C217.598,1405.49 215.676,1404.38 215.676,1403.05 C215.676,1402.82 215.723,1402.74 215.911,1402.62 C217.192,1402.02 218.239,1401.59 218.239,1399.9 C218.239,1398.62 217.239,1397.66 215.833,1397.66 C214.083,1397.66 212.755,1399.13 212.755,1401.05 C212.755,1404.59 215.801,1407.13 220.083,1407.13 C226.551,1407.13 231.801,1401.98 231.801,1395.59 C231.801,1391.54 228.723,1388.69 224.364,1388.69 C222.63,1388.69 221.239,1389.05 219.317,1390.02 L221.551,1382.46 C223.676,1382.9 225.364,1383.1 226.801,1383.1 C229.442,1383.1 231.801,1382.26 233.114,1380.87 C233.801,1380.07 234.192,1379.38 234.192,1378.87 C234.192,1378.62 234.067,1378.38 233.911,1378.38 C233.801,1378.38 233.708,1378.43 233.473,1378.54 C232.161,1379.18 230.473,1379.54 228.911,1379.54 C226.52,1379.54 223.676,1379.15 220.723,1378.38 L217.083,1391.23 "/>
<polyline class="BarLine" fill="none" stroke="#000000" stroke-width="6.42" stroke-linejoin="bevel" points="1735.67,816.518 1735.67,962.999"/>
<polyline class="BarLine" fill="none" stroke="#000000" stroke-width="6.42" stroke-linejoin="bevel" points="2844.19,816.518 2844.19,962.999"/>
<polyline class="BarLine" fill="none" stroke="#000000" stroke-width="6.42" stroke-linejoin="bevel" points="2353.29,816.518 2353.29,962.999"/>
<polyline class="BarLine" fill="none" stroke="#000000" stroke-width="6.42" stroke-linejoin="bevel" points="1091.04,1475.86 1091.04,1622.34"/>
<polyline class="BarLine" fill="none" stroke="#000000" stroke-width="6.42" stroke-linejoin="bevel" points="1244.77,816.518 1244.77,962.999"/>
<polyline class="BarLine" fill="none" stroke="#000000" stroke-width="6.42" stroke-linejoin="bevel" points="1814.43,1475.86 1814.43,1622.34"/>
<polyline class="BarLine" fill="none" stroke="#000000" stroke-width="6.42" stroke-linejoin="bevel" points="2811.41,1475.86 2811.41,1622.34"/>
<polyline class="BarLine" fill="none" stroke="#000000" stroke-width="19.60" stroke-linejoin="bevel" points="2837.6,1475.86 2837.6,1622.34"/>
<polyline class="BarLine" fill="none" stroke="#000000" stroke-width="6.42" stroke-linejoin="bevel" points="2368.31,1475.86 2368.31,1622.34"/>
<polyline class="LedgerLine" fill="none" stroke="#000000" stroke-width="5.70" stroke-linejoin="bevel" points="909.027,1656.02 978.871,1656.02"/>
<polyline class="LedgerLine" fill="none" stroke="#000000" stroke-width="5.70" stroke-linejoin="bevel" points="407.894,1656.02 477.738,1656.02"/>
<polyline class="LedgerLine" fill="none" stroke="#000000" stroke-width="5.70" stroke-linejoin="bevel" points="574.939,1656.02 644.782,1656.02"/>
<polyline class="LedgerLine" fill="none" stroke="#000000" stroke-width="5.70" stroke-linejoin="bevel" points="2402.15,996.678 2478.84,996.678"/>
<polyline class="LedgerLine" fill="none" stroke="#000000" stroke-width="5.70" stroke-linejoin="bevel" points="2417.16,1656.02 2493.86,1656.02"/>
<polyline class="LedgerLine" fill="none" stroke="#000000" stroke-width="5.70" stroke-linejoin="bevel" points="741.983,1656.02 811.826,1656.02"/>
<polyline class="LedgerLine" fill="none" stroke="#000000" stroke-width="5.70" stroke-linejoin="bevel" points="1293.62,996.678 1370.32,996.678"/>
<polyline class="Stem" fill="none" stroke="#000000" stroke-width="3.56" stroke-linejoin="bevel" points="965.327,1650.32 965.327,1531.28"/>
<polyline class="Stem" fill="none" stroke="#000000" stroke-width="3.56" stroke-linejoin="bevel" points="1187.58,1632.5 1187.58,1513.46"/>
<polyline class="Stem" fill="none" stroke="#000000" stroke-width="3.56" stroke-linejoin="bevel" points="798.283,1650.32 798.283,1531.28"/>
<polyline class="Stem" fill="none" stroke="#000000" stroke-width="3.56" stroke-linejoin="bevel" points="1354.63,1632.5 1354.63,1513.46"/>
<polyline class="Stem" fill="none" stroke="#000000" stroke-width="3.56" stroke-linejoin="bevel" points="1521.67,1632.5 1521.67,1513.46"/>
<polyline class="Stem" fill="none" stroke="#000000" stroke-width="3.56" stroke-linejoin="bevel" points="631.239,1650.32 631.239,1531.28"/>
<polyline class="Stem" fill="none" stroke="#000000" stroke-width="3.56" stroke-linejoin="bevel" points="2159.07,1632.5 2159.07,1513.46"/>
<polyline class="Stem" fill="none" stroke="#000000" stroke-width="3.56" stroke-linejoin="bevel" points="1688.71,1632.5 1688.71,1513.46"/>
<polyline class="Stem" fill="none" stroke="#000000" stroke-width="3.56" stroke-linejoin="bevel" points="1908.51,1614.68 1908.51,1495.64"/>
<polyline class="Stem" fill="none" stroke="#000000" stroke-width="3.56" stroke-linejoin="bevel" points="464.194,1650.32 464.194,1531.28"/>
<polyline class="Stem" fill="none" stroke="#000000" stroke-width="3.56" stroke-linejoin="bevel" points="1829.75,955.336 1829.75,836.298"/>
<polyline class="Stem" fill="none" stroke="#000000" stroke-width="3.56" stroke-linejoin="bevel" points="721.226,955.336 721.226,836.298"/>
<polyline class="Stem" fill="none" stroke="#000000" stroke-width="3.56" stroke-linejoin="bevel" points="1003.66,973.156 1003.66,854.118"/>
<polyline class="Stem" fill="none" stroke="#000000" stroke-width="3.56" stroke-linejoin="bevel" points="2112.19,973.156 2112.19,854.118"/>
<path class="Note" transform="matrix(1.4256,0,0,1.4256,1305.38,996.678)" d="M18.7031,-13.5938 C4.90625,-13.5938 0,-6.59375 0,-0.09375 C0,6.40625 4.90625,13.4063 18.7031,13.4063 C32.5,13.4063 37.2969,6.40625 37.2969,-0.09375 C37.2969,-6.59375 32.5,-13.5938 18.7031,-13.5938 M19.5,10.2031 C16.7031,10.2031 14.7969,9.40625 13.5,6.90625 C12.2031,4.40625 10.4063,-2.09375 10.2969,-4.70313 C10.0938,-7.40625 11.0938,-9 13.5,-9.79688 C14.7031,-10.2031 16.2969,-10.4063 17.9063,-10.4063 C20.5938,-10.4063 22.4063,-9.79688 23.7969,-7.09375 C25.2031,-4.5 27.1094,2 27.1094,4.5 C27.1094,9.40625 23.5,10.2031 19.5,10.2031"/>
<path class="Note" transform="matrix(1.4256,0,0,1.4256,1310.09,1638.2)" d="M0,4.20313 C0,8.5 3.09375,13.2969 11.2031,13.2969 C21.5938,13.2969 32.5,4.79688 32.5,-4 C32.5,-9.90625 27.5,-13.2031 21.2969,-13.2031 C11.5938,-13.2031 0,-5 0,4.20313"/>
<path class="Note" transform="matrix(1.4256,0,0,1.4256,1477.13,1638.2)" d="M0,4.20313 C0,8.5 3.09375,13.2969 11.2031,13.2969 C21.5938,13.2969 32.5,4.79688 32.5,-4 C32.5,-9.90625 27.5,-13.2031 21.2969,-13.2031 C11.5938,-13.2031 0,-5 0,4.20313"/>
<path class="Note" transform="matrix(1.4256,0,0,1.4256,1644.18,1638.2)" d="M0,4.20313 C0,8.5 3.09375,13.2969 11.2031,13.2969 C21.5938,13.2969 32.5,4.79688 32.5,-4 C32.5,-9.90625 27.5,-13.2031 21.2969,-13.2031 C11.5938,-13.2031 0,-5 0,4.20313"/>
<path class="Note" transform="matrix(1.4256,0,0,1.4256,1143.04,1638.2)" d="M0,4.20313 C0,8.5 3.09375,13.2969 11.2031,13.2969 C21.5938,13.2969 32.5,4.79688 32.5,-4 C32.5,-9.90625 27.5,-13.2031 21.2969,-13.2031 C11.5938,-13.2031 0,-5 0,4.20313"/>
<path class="Note" transform="matrix(1.4256,0,0,1.4256,1785.21,961.038)" d="M21.2969,-13.2031 C11.5938,-13.2031 0,-5.09375 0,4.20313 C0,8.5 3.09375,13.2969 11.2031,13.2969 C21.5938,13.2969 32.5,4.79688 32.5,-4 C32.5,-9.90625 27.5,-13.2031 21.2969,-13.2031 M7.5,8.59375 C4.20313,8.59375 3.5,5.90625 3.5,5 C3.5,0.09375 20.2969,-8.5 25,-8.5 C27.4063,-8.5 29,-7.09375 29,-4.90625 C29,0.09375 12.0938,8.59375 7.5,8.59375"/>
<path class="Note" transform="matrix(1.4256,0,0,1.4256,959.123,978.858)" d="M21.2969,-13.2031 C11.5938,-13.2031 0,-5.09375 0,4.20313 C0,8.5 3.09375,13.2969 11.2031,13.2969 C21.5938,13.2969 32.5,4.79688 32.5,-4 C32.5,-9.90625 27.5,-13.2031 21.2969,-13.2031 M7.5,8.59375 C4.20313,8.59375 3.5,5.90625 3.5,5 C3.5,0.09375 20.2969,-8.5 25,-8.5 C27.4063,-8.5 29,-7.09375 29,-4.90625 C29,0.09375 12.0938,8.59375 7.5,8.59375"/>
<path class="Note" transform="matrix(1.4256,0,0,1.4256,920.789,1656.02)" d="M0,4.20313 C0,8.5 3.09375,13.2969 11.2031,13.2969 C21.5938,13.2969 32.5,4.79688 32.5,-4 C32.5,-9.90625 27.5,-13.2031 21.2969,-13.2031 C11.5938,-13.2031 0,-5 0,4.20313"/>
<path class="Note" transform="matrix(1.4256,0,0,1.4256,2067.65,978.858)" d="M21.2969,-13.2031 C11.5938,-13.2031 0,-5.09375 0,4.20313 C0,8.5 3.09375,13.2969 11.2031,13.2969 C21.5938,13.2969 32.5,4.79688 32.5,-4 C32.5,-9.90625 27.5,-13.2031 21.2969,-13.2031 M7.5,8.59375 C4.20313,8.59375 3.5,5.90625 3.5,5 C3.5,0.09375 20.2969,-8.5 25,-8.5 C27.4063,-8.5 29,-7.09375 29,-4.90625 C29,0.09375 12.0938,8.59375 7.5,8.59375"/>
<path class="Note" transform="matrix(1.4256,0,0,1.4256,1863.97,1620.38)" d="M21.2969,-13.2031 C11.5938,-13.2031 0,-5.09375 0,4.20313 C0,8.5 3.09375,13.2969 11.2031,13.2969 C21.5938,13.2969 32.5,4.79688 32.5,-4 C32.5,-9.90625 27.5,-13.2031 21.2969,-13.2031 M7.5,8.59375 C4.20313,8.59375 3.5,5.90625 3.5,5 C3.5,0.09375 20.2969,-8.5 25,-8.5 C27.4063,-8.5 29,-7.09375 29,-4.90625 C29,0.09375 12.0938,8.59375 7.5,8.59375"/>
<path class="Note" transform="matrix(1.4256,0,0,1.4256,753.744,1656.02)" d="M0,4.20313 C0,8.5 3.09375,13.2969 11.2031,13.2969 C21.5938,13.2969 32.5,4.79688 32.5,-4 C32.5,-9.90625 27.5,-13.2031 21.2969,-13.2031 C11.5938,-13.2031 0,-5 0,4.20313"/>
<path class="Note" transform="matrix(1.4256,0,0,1.4256,676.687,961.038)" d="M21.2969,-13.2031 C11.5938,-13.2031 0,-5.09375 0,4.20313 C0,8.5 3.09375,13.2969 11.2031,13.2969 C21.5938,13.2969 32.5,4.79688 32.5,-4 C32.5,-9.90625 27.5,-13.2031 21.2969,-13.2031 M7.5,8.59375 C4.20313,8.59375 3.5,5.90625 3.5,5 C3.5,0.09375 20.2969,-8.5 25,-8.5 C27.4063,-8.5 29,-7.09375 29,-4.90625 C29,0.09375 12.0938,8.59375 7.5,8.59375"/>
<path class="Note" transform="matrix(1.4256,0,0,1.4256,2114.53,1638.2)" d="M21.2969,-13.2031 C11.5938,-13.2031 0,-5.09375 0,4.20313 C0,8.5 3.09375,13.2969 11.2031,13.2969 C21.5938,13.2969 32.5,4.79688 32.5,-4 C32.5,-9.90625 27.5,-13.2031 21.2969,-13.2031 M7.5,8.59375 C4.20313,8.59375 3.5,5.90625 3.5,5 C3.5,0.09375 20.2969,-8.5 25,-8.5 C27.4063,-8.5 29,-7.09375 29,-4.90625 C29,0.09375 12.0938,8.59375 7.5,8.59375"/>
<path class="Note" transform="matrix(1.4256,0,0,1.4256,586.7,1656.02)" d="M0,4.20313 C0,8.5 3.09375,13.2969 11.2031,13.2969 C21.5938,13.2969 32.5,4.79688 32.5,-4 C32.5,-9.90625 27.5,-13.2031 21.2969,-13.2031 C11.5938,-13.2031 0,-5 0,4.20313"/>
<path class="Note" transform="matrix(1.4256,0,0,1.4256,2413.91,996.678)" d="M18.7031,-13.5938 C4.90625,-13.5938 0,-6.59375 0,-0.09375 C0,6.40625 4.90625,13.4063 18.7031,13.4063 C32.5,13.4063 37.2969,6.40625 37.2969,-0.09375 C37.2969,-6.59375 32.5,-13.5938 18.7031,-13.5938 M19.5,10.2031 C16.7031,10.2031 14.7969,9.40625 13.5,6.90625 C12.2031,4.40625 10.4063,-2.09375 10.2969,-4.70313 C10.0938,-7.40625 11.0938,-9 13.5,-9.79688 C14.7031,-10.2031 16.2969,-10.4063 17.9063,-10.4063 C20.5938,-10.4063 22.4063,-9.79688 23.7969,-7.09375 C25.2031,-4.5 27.1094,2 27.1094,4.5 C27.1094,9.40625 23.5,10.2031 19.5,10.2031"/>
<path class="Note" transform="matrix(1.4256,0,0,1.4256,2428.92,1656.02)" d="M18.7031,-13.5938 C4.90625,-13.5938 0,-6.59375 0,-0.09375 C0,6.40625 4.90625,13.4063 18.7031,13.4063 C32.5,13.4063 37.2969,6.40625 37.2969,-0.09375 C37.2969,-6.59375 32.5,-13.5938 18.7031,-13.5938 M19.5,10.2031 C16.7031,10.2031 14.7969,9.40625 13.5,6.90625 C12.2031,4.40625 10.4063,-2.09375 10.2969,-4.70313 C10.0938,-7.40625 11.0938,-9 13.5,-9.79688 C14.7031,-10.2031 16.2969,-10.4063 17.9063,-10.4063 C20.5938,-10.4063 22.4063,-9.79688 23.7969,-7.09375 C25.2031,-4.5 27.1094,2 27.1094,4.5 C27.1094,9.40625 23.5,10.2031 19.5,10.2031"/>
<path class="Note" transform="matrix(1.4256,0,0,1.4256,419.656,1656.02)" d="M0,4.20313 C0,8.5 3.09375,13.2969 11.2031,13.2969 C21.5938,13.2969 32.5,4.79688 32.5,-4 C32.5,-9.90625 27.5,-13.2031 21.2969,-13.2031 C11.5938,-13.2031 0,-5 0,4.20313"/>
<path class="Clef" transform="matrix(1.4256,0,0,1.4256,417.528,925.398)" d="M12.2969,51.2969 C12.2969,57.9063 17.2969,66.6094 30.7969,66.6094 C35.5,66.6094 39.6094,65.4063 43.2031,63.2031 C48.6094,59.4063 50,52.7969 50,46.5 C50,42.6094 49.4063,38.1094 48.4063,32.4063 C48.1094,30.4063 47.5,27.4063 46.9063,23.5 C56.7031,20.2969 64,10.0938 64,-0.203125 C64,-15.2969 53.2969,-25.5 38.7031,-25.5 C37.7031,-31.5 36.7031,-37.4063 35.9063,-43 C46.4063,-54.1094 53.7031,-66.6094 53.7031,-82.5 C53.7031,-91.6094 50.9063,-99 49.2969,-102.609 C46.9063,-107.703 44,-111.203 42.2031,-111.203 C41.5,-111.203 38.4063,-110 35.1094,-106.109 C28.7031,-98.5 26.9063,-85.7031 26.9063,-77.3125 C26.9063,-71.9063 27.4063,-67 29.1094,-55.7969 C29,-55.7031 23.7969,-50.4063 21.7031,-48.7031 C12.5938,-40.2969 0,-28.1094 0,-8.09375 C0,10.5938 16.2969,25.2969 34.9063,25.2969 C37.7969,25.2969 40.5,25 42.7969,24.5938 C44.7031,34.2031 45.9063,41.2031 45.9063,46.5 C45.9063,56.9063 40.5,62.4063 30.4063,62.4063 C28,62.4063 25.9063,61.9063 25.7031,61.9063 C25.6094,61.7969 25.4063,61.7031 25.4063,61.6094 C25.4063,61.4063 25.6094,61.2969 25.9063,61.2969 C30.6094,60.5 35.2969,56.5 35.2969,50.1094 C35.2969,44.7031 31.2031,39 23.7031,39 C16.7031,39 12.2969,44.7031 12.2969,51.2969 M33.2031,-82.2031 C34.1094,-86.2031 38.7031,-96.7031 43.9063,-96.7031 C45.4063,-96.7031 47.7969,-91.9063 47.7969,-84.9063 C47.7969,-74.5 40.1094,-66.7031 33.2031,-59.9063 C32.6094,-63.9063 32.1094,-67.7969 32.1094,-72 C32.1094,-75.7031 32.4063,-79.1094 33.2031,-82.2031 M42,20.5938 C40,21 38.1094,21.2031 36.2031,21.2031 C21.9063,21.2031 9.70313,11.2031 9.70313,-3.90625 C9.70313,-16.0938 18.2969,-27 27.1094,-34.6094 C28.7969,-36.1094 30.4063,-37.5 31.9063,-39 C32.7969,-33.6094 33.5,-28.9063 34.2031,-24.7969 C25.0938,-22.0938 18.9063,-12.5 18.9063,-3.09375 C18.9063,3.90625 24.4063,13.5 32.4063,13.5 C33.2031,13.5 34.1094,13.0938 34.1094,12.2031 C34.1094,11.2969 33.1094,10.7969 31.9063,10 C28,7.59375 25.7969,5 25.7969,0.09375 C25.7969,-6 30.4063,-10.9063 36.2031,-12.2969 L42,20.5938 M56.2031,2.09375 C56.2031,9.20313 53.2969,16.5 46.2031,19.4063 C44.1094,7.40625 41.4063,-8.5 40.7031,-12.9063 C49.7031,-12.9063 56.2031,-6.79688 56.2031,2.09375"/>
<path class="Clef" transform="matrix(1.4256,0,0,1.4256,239.328,1584.74)" d="M12.2969,51.2969 C12.2969,57.9063 17.2969,66.6094 30.7969,66.6094 C35.5,66.6094 39.6094,65.4063 43.2031,63.2031 C48.6094,59.4063 50,52.7969 50,46.5 C50,42.6094 49.4063,38.1094 48.4063,32.4063 C48.1094,30.4063 47.5,27.4063 46.9063,23.5 C56.7031,20.2969 64,10.0938 64,-0.203125 C64,-15.2969 53.2969,-25.5 38.7031,-25.5 C37.7031,-31.5 36.7031,-37.4063 35.9063,-43 C46.4063,-54.1094 53.7031,-66.6094 53.7031,-82.5 C53.7031,-91.6094 50.9063,-99 49.2969,-102.609 C46.9063,-107.703 44,-111.203 42.2031,-111.203 C41.5,-111.203 38.4063,-110 35.1094,-106.109 C28.7031,-98.5 26.9063,-85.7031 26.9063,-77.3125 C26.9063,-71.9063 27.4063,-67 29.1094,-55.7969 C29,-55.7031 23.7969,-50.4063 21.7031,-48.7031 C12.5938,-40.2969 0,-28.1094 0,-8.09375 C0,10.5938 16.2969,25.2969 34.9063,25.2969 C37.7969,25.2969 40.5,25 42.7969,24.5938 C44.7031,34.2031 45.9063,41.2031 45.9063,46.5 C45.9063,56.9063 40.5,62.4063 30.4063,62.4063 C28,62.4063 25.9063,61.9063 25.7031,61.9063 C25.6094,61.7969 25.4063,61.7031 25.4063,61.6094 C25.4063,61.4063 25.6094,61.2969 25.9063,61.2969 C30.6094,60.5 35.2969,56.5 35.2969,50.1094 C35.2969,44.7031 31.2031,39 23.7031,39 C16.7031,39 12.2969,44.7031 12.2969,51.2969 M33.2031,-82.2031 C34.1094,-86.2031 38.7031,-96.7031 43.9063,-96.7031 C45.4063,-96.7031 47.7969,-91.9063 47.7969,-84.9063 C47.7969,-74.5 40.1094,-66.7031 33.2031,-59.9063 C32.6094,-63.9063 32.1094,-67.7969 32.1094,-72 C32.1094,-75.7031 32.4063,-79.1094 33.2031,-82.2031 M42,20.5938 C40,21 38.1094,21.2031 36.2031,21.2031 C21.9063,21.2031 9.70313,11.2031 9.70313,-3.90625 C9.70313,-16.0938 18.2969,-27 27.1094,-34.6094 C28.7969,-36.1094 30.4063,-37.5 31.9063,-39 C32.7969,-33.6094 33.5,-28.9063 34.2031,-24.7969 C25.0938,-22.0938 18.9063,-12.5 18.9063,-3.09375 C18.9063,3.90625 24.4063,13.5 32.4063,13.5 C33.2031,13.5 34.1094,13.0938 34.1094,12.2031 C34.1094,11.2969 33.1094,10.7969 31.9063,10 C28,7.59375 25.7969,5 25.7969,0.09375 C25.7969,-6 30.4063,-10.9063 36.2031,-12.2969 L42,20.5938 M56.2031,2.09375 C56.2031,9.20313 53.2969,16.5 46.2031,19.4063 C44.1094,7.40625 41.4063,-8.5 40.7031,-12.9063 C49.7031,-12.9063 56.2031,-6.79688 56.2031,2.09375"/>
<path class="TimeSig" transform="matrix(1.4256,0,0,1.4256,542.402,854.118)" d="M20.7969,12.7031 L20.7969,20.0938 L12.5,20.0938 C11.7969,20.0938 11.0938,20.7031 11.0938,21.5 L11.0938,23.4063 C11.0938,24.2031 11.7969,24.7969 12.5,24.7969 L42.7969,24.7969 C43.6094,24.7969 44.2031,24.2031 44.2031,23.4063 L44.2031,21.5 C44.2031,20.7031 43.6094,20.0938 42.7969,20.0938 L33.9063,20.0938 L33.9063,12.7031 L42.7969,12.7031 C43.6094,12.7031 44.2031,12 44.2031,11.2031 L44.2031,9.29688 C44.2031,8.59375 43.6094,7.90625 42.7969,7.90625 L33.9063,7.90625 L33.9063,-8 C33.9063,-8.59375 33.6094,-9.09375 33.1094,-9.29688 L31.9063,-9.90625 C31.7031,-10 31.4063,-10.0938 31.2031,-10.0938 C30.9063,-10 30.5,-9.90625 30.2969,-9.70313 L21.2031,-1.40625 C20.9063,-1.09375 20.7969,-0.703125 20.7969,-0.296875 L20.7969,7.90625 L9.29688,7.90625 C9.29688,7.90625 20.4063,-4.09375 32.2031,-19.9063 C32.6094,-20.4063 32.7031,-20.9063 32.7031,-21.2969 C32.7031,-21.7969 32.5,-22.2031 32.4063,-22.2969 L30.2031,-24.5 C30,-24.7031 29.6094,-24.9063 29.2031,-24.9063 C28.6094,-24.9063 15.0938,-24.9063 14.4063,-24.9063 C13.5938,-24.9063 13.0938,-24.2969 13,-23.7031 C13,-23.7031 12.5,-16.2969 9.90625,-8.20313 C7.29688,-0.09375 4.29688,4.90625 1.70313,8.59375 C1.70313,8.59375 1.40625,9.09375 1.40625,9.70313 C1.40625,9.90625 1.40625,10.0938 1.5,10.2969 C1.90625,11 2.5,12.0938 2.5,12.0938 C2.5,12.0938 2.70313,12.7031 3.59375,12.7031 L20.7969,12.7031 "/>
<path class="TimeSig" transform="matrix(1.4256,0,0,1.4256,542.402,925.398)" d="M20.7969,12.7031 L20.7969,20.0938 L12.5,20.0938 C11.7969,20.0938 11.0938,20.7031 11.0938,21.5 L11.0938,23.4063 C11.0938,24.2031 11.7969,24.7969 12.5,24.7969 L42.7969,24.7969 C43.6094,24.7969 44.2031,24.2031 44.2031,23.4063 L44.2031,21.5 C44.2031,20.7031 43.6094,20.0938 42.7969,20.0938 L33.9063,20.0938 L33.9063,12.7031 L42.7969,12.7031 C43.6094,12.7031 44.2031,12 44.2031,11.2031 L44.2031,9.29688 C44.2031,8.59375 43.6094,7.90625 42.7969,7.90625 L33.9063,7.90625 L33.9063,-8 C33.9063,-8.59375 33.6094,-9.09375 33.1094,-9.29688 L31.9063,-9.90625 C31.7031,-10 31.4063,-10.0938 31.2031,-10.0938 C30.9063,-10 30.5,-9.90625 30.2969,-9.70313 L21.2031,-1.40625 C20.9063,-1.09375 20.7969,-0.703125 20.7969,-0.296875 L20.7969,7.90625 L9.29688,7.90625 C9.29688,7.90625 20.4063,-4.09375 32.2031,-19.9063 C32.6094,-20.4063 32.7031,-20.9063 32.7031,-21.2969 C32.7031,-21.7969 32.5,-22.2031 32.4063,-22.2969 L30.2031,-24.5 C30,-24.7031 29.6094,-24.9063 29.2031,-24.9063 C28.6094,-24.9063 15.0938,-24.9063 14.4063,-24.9063 C13.5938,-24.9063 13.0938,-24.2969 13,-23.7031 C13,-23.7031 12.5,-16.2969 9.90625,-8.20313 C7.29688,-0.09375 4.29688,4.90625 1.70313,8.59375 C1.70313,8.59375 1.40625,9.09375 1.40625,9.70313 C1.40625,9.90625 1.40625,10.0938 1.5,10.2969 C1.90625,11 2.5,12.0938 2.5,12.0938 C2.5,12.0938 2.70313,12.7031 3.59375,12.7031 L20.7969,12.7031 "/>
<path class="Lyrics" d="M1265.21,1052.24 L1252.99,1053.02 L1252.99,1056.06 L1255.48,1056.06 C1258.18,1056.14 1258.54,1056.56 1258.54,1059.63 L1258.54,1087.24 C1258.54,1097.11 1258.12,1102.5 1257.26,1105.56 L1259.96,1105.56 L1263.43,1100.02 C1266.35,1103.86 1269.68,1105.63 1274.09,1105.63 C1282.88,1105.63 1289.35,1098.11 1289.35,1087.81 C1289.35,1077.58 1283.38,1070.41 1274.87,1070.41 C1270.54,1070.41 1267.91,1071.91 1265.21,1075.95 L1265.21,1052.24 M1273.59,1074.03 C1278.91,1074.03 1281.9,1079.22 1281.9,1088.52 C1281.9,1097.53 1278.98,1102.58 1273.81,1102.58 C1268.2,1102.58 1264.85,1097.39 1264.85,1088.66 C1264.85,1079.14 1267.91,1074.03 1273.59,1074.03 M1321.15,1105.06 L1334.07,1104.56 L1334.07,1101.52 L1332.31,1101.52 C1328.18,1101.38 1327.82,1100.94 1327.82,1096.33 L1327.82,1071.49 L1314.48,1072.27 L1314.48,1075.31 L1318.1,1075.31 C1320.79,1075.38 1321.15,1075.81 1321.15,1078.86 L1321.15,1087.6 C1321.15,1093.77 1319.66,1101.3 1311.85,1101.3 C1309.65,1101.3 1307.81,1100.52 1306.88,1099.1 C1305.96,1097.75 1305.82,1097.03 1305.82,1093.13 L1305.82,1071.49 L1293.38,1072.27 L1293.38,1075.31 L1296.09,1075.31 C1298.79,1075.38 1299.13,1075.81 1299.13,1078.86 L1299.13,1094.2 C1299.13,1097.81 1299.43,1099.45 1300.49,1101.08 C1302.41,1104 1305.82,1105.63 1310.07,1105.63 C1314.76,1105.63 1318.02,1103.7 1321.15,1099.17 L1321.15,1105.06 M1349.48,1071.49 L1337.2,1072.27 L1337.2,1075.31 L1339.74,1075.31 C1342.45,1075.38 1342.81,1075.81 1342.81,1078.86 L1342.81,1099.17 C1342.73,1100.24 1342.66,1100.66 1342.37,1101.02 C1341.88,1101.66 1340.52,1101.94 1337.48,1102 L1337.2,1102 L1337.2,1104.56 L1355.15,1104.56 L1355.15,1102 L1354.87,1102 C1350.12,1101.86 1349.48,1101.52 1349.48,1098.95 L1349.48,1088.45 C1349.48,1084.97 1349.98,1081.77 1350.76,1080.14 C1352.24,1076.94 1355.43,1074.75 1358.49,1074.75 C1360.34,1074.75 1362.46,1075.74 1363.52,1077.24 C1364.6,1078.8 1365.09,1080.92 1365.09,1084.33 L1365.09,1099.17 C1365.02,1100.24 1364.95,1100.66 1364.66,1101.02 C1364.16,1101.66 1362.76,1101.94 1359.7,1102 L1359.41,1102 L1359.41,1104.56 L1377.38,1104.56 L1377.38,1102 L1377.09,1102 C1372.4,1101.86 1371.77,1101.52 1371.77,1098.95 L1371.77,1084.69 C1371.77,1079.58 1371.56,1078.3 1370.27,1075.88 C1368.51,1072.47 1364.95,1070.41 1360.7,1070.41 C1356.07,1070.41 1352.6,1072.55 1349.48,1077.24 L1349.48,1071.49 M1406.34,1070.7 L1403.85,1070.7 L1401.79,1073.25 C1399.24,1071.27 1396.68,1070.41 1393.13,1070.41 C1386.88,1070.41 1382.77,1074.45 1382.77,1080.7 C1382.77,1087.38 1387.1,1089.08 1392.77,1090.44 L1396.54,1091.28 C1402.15,1092.64 1404.13,1094.05 1404.13,1096.89 C1404.13,1100.24 1401.23,1102.58 1397.1,1102.58 C1391.07,1102.58 1386.82,1098.74 1385.1,1091.64 L1382.27,1091.64 L1382.27,1105.06 L1384.76,1105.06 L1387.24,1102.16 C1390.15,1104.49 1393.35,1105.63 1396.96,1105.63 C1403.93,1105.63 1408.54,1101.3 1408.54,1094.69 C1408.54,1091.56 1407.54,1089.16 1405.56,1087.52 C1403.85,1086.03 1402.43,1085.47 1398.1,1084.55 L1394.56,1083.77 C1390.65,1082.91 1390.65,1082.91 1389.37,1082.2 C1387.81,1081.49 1386.88,1080 1386.88,1078.44 C1386.88,1075.53 1389.59,1073.53 1393.49,1073.53 C1399.31,1073.53 1402.15,1077.66 1403.85,1082.63 L1406.34,1082.63 L1406.34,1070.7 M1421.95,1091 C1422.01,1078.44 1422.31,1074.95 1423.65,1068.28 C1424.65,1063.39 1424.93,1061.19 1424.93,1059.05 C1424.93,1054.52 1423.51,1052.31 1420.6,1052.31 C1417.68,1052.31 1416.2,1054.58 1416.2,1058.99 C1416.2,1061.11 1416.48,1063.31 1417.48,1068.28 C1418.82,1074.95 1419.04,1078.3 1419.18,1091 L1421.95,1091 M1420.6,1096.69 C1418.12,1096.69 1416.12,1098.67 1416.12,1101.08 C1416.12,1103.56 1418.12,1105.56 1420.52,1105.56 C1423.01,1105.56 1424.99,1103.56 1424.99,1101.08 C1424.99,1098.67 1423.01,1096.69 1420.6,1096.69"/>
<path class="Lyrics" d="M2388.75,1711.58 L2376.53,1712.36 L2376.53,1715.4 L2379.02,1715.4 C2381.72,1715.48 2382.08,1715.9 2382.08,1718.97 L2382.08,1746.58 C2382.08,1756.45 2381.66,1761.84 2380.8,1764.9 L2383.5,1764.9 L2386.97,1759.36 C2389.89,1763.2 2393.22,1764.97 2397.63,1764.97 C2406.42,1764.97 2412.89,1757.45 2412.89,1747.15 C2412.89,1736.92 2406.92,1729.75 2398.41,1729.75 C2394.08,1729.75 2391.45,1731.25 2388.75,1735.29 L2388.75,1711.58 M2397.13,1733.37 C2402.45,1733.37 2405.44,1738.56 2405.44,1747.86 C2405.44,1756.87 2402.52,1761.92 2397.35,1761.92 C2391.74,1761.92 2388.39,1756.73 2388.39,1748 C2388.39,1738.48 2391.45,1733.37 2397.13,1733.37 M2444.69,1764.4 L2457.61,1763.9 L2457.61,1760.86 L2455.85,1760.86 C2451.72,1760.72 2451.36,1760.28 2451.36,1755.67 L2451.36,1730.83 L2438.02,1731.61 L2438.02,1734.65 L2441.64,1734.65 C2444.33,1734.72 2444.69,1735.15 2444.69,1738.2 L2444.69,1746.94 C2444.69,1753.11 2443.2,1760.64 2435.39,1760.64 C2433.19,1760.64 2431.35,1759.86 2430.42,1758.44 C2429.5,1757.09 2429.36,1756.37 2429.36,1752.47 L2429.36,1730.83 L2416.92,1731.61 L2416.92,1734.65 L2419.63,1734.65 C2422.33,1734.72 2422.67,1735.15 2422.67,1738.2 L2422.67,1753.54 C2422.67,1757.15 2422.97,1758.79 2424.03,1760.42 C2425.95,1763.34 2429.36,1764.97 2433.61,1764.97 C2438.3,1764.97 2441.56,1763.04 2444.69,1758.51 L2444.69,1764.4 M2473.02,1730.83 L2460.74,1731.61 L2460.74,1734.65 L2463.28,1734.65 C2465.99,1734.72 2466.35,1735.15 2466.35,1738.2 L2466.35,1758.51 C2466.27,1759.58 2466.2,1760 2465.91,1760.36 C2465.42,1761 2464.06,1761.28 2461.02,1761.34 L2460.74,1761.34 L2460.74,1763.9 L2478.69,1763.9 L2478.69,1761.34 L2478.41,1761.34 C2473.66,1761.2 2473.02,1760.86 2473.02,1758.29 L2473.02,1747.79 C2473.02,1744.31 2473.52,1741.11 2474.3,1739.48 C2475.78,1736.28 2478.97,1734.09 2482.03,1734.09 C2483.88,1734.09 2486,1735.08 2487.06,1736.58 C2488.14,1738.14 2488.63,1740.26 2488.63,1743.67 L2488.63,1758.51 C2488.56,1759.58 2488.49,1760 2488.2,1760.36 C2487.7,1761 2486.3,1761.28 2483.24,1761.34 L2482.95,1761.34 L2482.95,1763.9 L2500.92,1763.9 L2500.92,1761.34 L2500.63,1761.34 C2495.94,1761.2 2495.31,1760.86 2495.31,1758.29 L2495.31,1744.03 C2495.31,1738.92 2495.1,1737.64 2493.81,1735.22 C2492.05,1731.81 2488.49,1729.75 2484.24,1729.75 C2479.61,1729.75 2476.14,1731.89 2473.02,1736.58 L2473.02,1730.83 M2529.88,1730.04 L2527.39,1730.04 L2525.33,1732.59 C2522.78,1730.61 2520.22,1729.75 2516.67,1729.75 C2510.42,1729.75 2506.31,1733.79 2506.31,1740.04 C2506.31,1746.72 2510.64,1748.42 2516.31,1749.78 L2520.08,1750.62 C2525.69,1751.98 2527.67,1753.39 2527.67,1756.23 C2527.67,1759.58 2524.77,1761.92 2520.64,1761.92 C2514.61,1761.92 2510.36,1758.08 2508.64,1750.98 L2505.81,1750.98 L2505.81,1764.4 L2508.3,1764.4 L2510.78,1761.5 C2513.69,1763.83 2516.89,1764.97 2520.5,1764.97 C2527.47,1764.97 2532.08,1760.64 2532.08,1754.03 C2532.08,1750.9 2531.08,1748.5 2529.1,1746.86 C2527.39,1745.37 2525.97,1744.81 2521.64,1743.89 L2518.1,1743.11 C2514.19,1742.25 2514.19,1742.25 2512.91,1741.54 C2511.35,1740.83 2510.42,1739.34 2510.42,1737.78 C2510.42,1734.87 2513.13,1732.87 2517.03,1732.87 C2522.85,1732.87 2525.69,1737 2527.39,1741.97 L2529.88,1741.97 L2529.88,1730.04 M2545.49,1750.34 C2545.55,1737.78 2545.85,1734.29 2547.19,1727.62 C2548.19,1722.73 2548.47,1720.53 2548.47,1718.39 C2548.47,1713.86 2547.05,1711.65 2544.14,1711.65 C2541.22,1711.65 2539.74,1713.92 2539.74,1718.33 C2539.74,1720.45 2540.02,1722.65 2541.02,1727.62 C2542.36,1734.29 2542.58,1737.64 2542.72,1750.34 L2545.49,1750.34 M2544.14,1756.03 C2541.66,1756.03 2539.66,1758.01 2539.66,1760.42 C2539.66,1762.9 2541.66,1764.9 2544.06,1764.9 C2546.55,1764.9 2548.53,1762.9 2548.53,1760.42 C2548.53,1758.01 2546.55,1756.03 2544.14,1756.03"/>
<path class="Lyrics" d="M403.222,1711.58 C388.238,1711.58 378.504,1723.86 378.504,1738.34 C378.504,1752.47 388.238,1764.97 402.941,1764.97 C416.847,1764.97 427.363,1753.47 427.363,1738.28 C427.363,1723.22 416.847,1711.58 403.222,1711.58 M403.144,1714.92 C407.91,1714.92 411.879,1717.12 414.441,1721.01 C417.066,1725.22 417.988,1729.54 417.988,1738.28 C417.988,1746.94 417.066,1751.26 414.441,1755.53 C411.879,1759.5 407.972,1761.64 402.941,1761.64 C397.894,1761.64 393.988,1759.58 391.425,1755.53 C388.738,1751.26 387.879,1746.94 387.879,1738.14 C387.879,1729.54 388.8,1725.28 391.425,1721.01 C394.066,1716.9 397.816,1714.92 403.144,1714.92 M444.754,1730.83 L432.472,1731.61 L432.472,1734.65 L435.019,1734.65 C437.722,1734.72 438.082,1735.15 438.082,1738.2 L438.082,1758.51 C438.004,1759.58 437.941,1760 437.644,1760.36 C437.16,1761 435.8,1761.28 432.754,1761.34 L432.472,1761.34 L432.472,1763.9 L450.425,1763.9 L450.425,1761.34 L450.144,1761.34 C445.394,1761.2 444.754,1760.86 444.754,1758.29 L444.754,1747.79 C444.754,1744.31 445.254,1741.11 446.035,1739.48 C447.519,1736.28 450.707,1734.09 453.769,1734.09 C455.613,1734.09 457.738,1735.08 458.8,1736.58 C459.879,1738.14 460.363,1740.26 460.363,1743.67 L460.363,1758.51 C460.3,1759.58 460.222,1760 459.941,1760.36 C459.441,1761 458.035,1761.28 454.972,1761.34 L454.691,1761.34 L454.691,1763.9 L472.66,1763.9 L472.66,1761.34 L472.363,1761.34 C467.675,1761.2 467.05,1760.86 467.05,1758.29 L467.05,1744.03 C467.05,1738.92 466.832,1737.64 465.55,1735.22 C463.785,1731.81 460.222,1729.75 455.972,1729.75 C451.347,1729.75 447.879,1731.89 444.754,1736.58 L444.754,1730.83 M506.941,1747.94 C507.004,1737.28 500.972,1729.75 492.316,1729.75 C483.222,1729.75 476.41,1737.64 476.41,1748.28 C476.41,1758.29 482.879,1764.97 492.457,1764.97 C499.269,1764.97 504.035,1761.64 506.941,1754.89 L504.457,1753.54 C501.55,1759 498.566,1761.14 493.8,1761.14 C490.191,1761.14 487.55,1759.64 485.707,1756.45 C484.441,1754.33 483.863,1751.84 483.941,1747.94 L506.941,1747.94 M484.004,1744.87 C484.004,1739.9 486.285,1732.81 492.238,1732.81 C496.504,1732.81 499.347,1736.58 499.347,1742.33 C499.347,1744.31 498.707,1744.87 496.425,1744.87 L484.004,1744.87 "/>
<path class="Lyrics" d="M2373.74,1052.24 L2361.52,1053.02 L2361.52,1056.06 L2364,1056.06 C2366.7,1056.14 2367.06,1056.56 2367.06,1059.63 L2367.06,1087.24 C2367.06,1097.11 2366.64,1102.5 2365.78,1105.56 L2368.49,1105.56 L2371.95,1100.02 C2374.88,1103.86 2378.2,1105.63 2382.61,1105.63 C2391.41,1105.63 2397.88,1098.11 2397.88,1087.81 C2397.88,1077.58 2391.91,1070.41 2383.39,1070.41 C2379.06,1070.41 2376.44,1071.91 2373.74,1075.95 L2373.74,1052.24 M2382.11,1074.03 C2387.44,1074.03 2390.42,1079.22 2390.42,1088.52 C2390.42,1097.53 2387.5,1102.58 2382.33,1102.58 C2376.72,1102.58 2373.38,1097.39 2373.38,1088.66 C2373.38,1079.14 2376.44,1074.03 2382.11,1074.03 M2429.67,1105.06 L2442.59,1104.56 L2442.59,1101.52 L2440.83,1101.52 C2436.7,1101.38 2436.34,1100.94 2436.34,1096.33 L2436.34,1071.49 L2423,1072.27 L2423,1075.31 L2426.63,1075.31 C2429.31,1075.38 2429.67,1075.81 2429.67,1078.86 L2429.67,1087.6 C2429.67,1093.77 2428.19,1101.3 2420.38,1101.3 C2418.17,1101.3 2416.33,1100.52 2415.41,1099.1 C2414.49,1097.75 2414.34,1097.03 2414.34,1093.13 L2414.34,1071.49 L2401.91,1072.27 L2401.91,1075.31 L2404.61,1075.31 C2407.31,1075.38 2407.66,1075.81 2407.66,1078.86 L2407.66,1094.2 C2407.66,1097.81 2407.95,1099.45 2409.02,1101.08 C2410.94,1104 2414.34,1105.63 2418.59,1105.63 C2423.28,1105.63 2426.55,1103.7 2429.67,1099.17 L2429.67,1105.06 M2458,1071.49 L2445.72,1072.27 L2445.72,1075.31 L2448.27,1075.31 C2450.97,1075.38 2451.33,1075.81 2451.33,1078.86 L2451.33,1099.17 C2451.25,1100.24 2451.19,1100.66 2450.89,1101.02 C2450.41,1101.66 2449.05,1101.94 2446,1102 L2445.72,1102 L2445.72,1104.56 L2463.67,1104.56 L2463.67,1102 L2463.39,1102 C2458.64,1101.86 2458,1101.52 2458,1098.95 L2458,1088.45 C2458,1084.97 2458.5,1081.77 2459.28,1080.14 C2460.77,1076.94 2463.95,1074.75 2467.02,1074.75 C2468.86,1074.75 2470.99,1075.74 2472.05,1077.24 C2473.13,1078.8 2473.61,1080.92 2473.61,1084.33 L2473.61,1099.17 C2473.55,1100.24 2473.47,1100.66 2473.19,1101.02 C2472.69,1101.66 2471.28,1101.94 2468.22,1102 L2467.94,1102 L2467.94,1104.56 L2485.91,1104.56 L2485.91,1102 L2485.61,1102 C2480.92,1101.86 2480.3,1101.52 2480.3,1098.95 L2480.3,1084.69 C2480.3,1079.58 2480.08,1078.3 2478.8,1075.88 C2477.03,1072.47 2473.47,1070.41 2469.22,1070.41 C2464.59,1070.41 2461.13,1072.55 2458,1077.24 L2458,1071.49 M2514.86,1070.7 L2512.38,1070.7 L2510.31,1073.25 C2507.77,1071.27 2505.2,1070.41 2501.66,1070.41 C2495.41,1070.41 2491.3,1074.45 2491.3,1080.7 C2491.3,1087.38 2495.63,1089.08 2501.3,1090.44 L2505.06,1091.28 C2510.67,1092.64 2512.66,1094.05 2512.66,1096.89 C2512.66,1100.24 2509.75,1102.58 2505.63,1102.58 C2499.59,1102.58 2495.34,1098.74 2493.63,1091.64 L2490.8,1091.64 L2490.8,1105.06 L2493.28,1105.06 L2495.77,1102.16 C2498.67,1104.49 2501.88,1105.63 2505.49,1105.63 C2512.45,1105.63 2517.06,1101.3 2517.06,1094.69 C2517.06,1091.56 2516.06,1089.16 2514.08,1087.52 C2512.38,1086.03 2510.95,1085.47 2506.63,1084.55 L2503.08,1083.77 C2499.17,1082.91 2499.17,1082.91 2497.89,1082.2 C2496.33,1081.49 2495.41,1080 2495.41,1078.44 C2495.41,1075.53 2498.11,1073.53 2502.02,1073.53 C2507.83,1073.53 2510.67,1077.66 2512.38,1082.63 L2514.86,1082.63 L2514.86,1070.7 M2530.47,1091 C2530.53,1078.44 2530.83,1074.95 2532.17,1068.28 C2533.17,1063.39 2533.45,1061.19 2533.45,1059.05 C2533.45,1054.52 2532.03,1052.31 2529.13,1052.31 C2526.2,1052.31 2524.72,1054.58 2524.72,1058.99 C2524.72,1061.11 2525,1063.31 2526,1068.28 C2527.34,1074.95 2527.56,1078.3 2527.7,1091 L2530.47,1091 M2529.13,1096.69 C2526.64,1096.69 2524.64,1098.67 2524.64,1101.08 C2524.64,1103.56 2526.64,1105.56 2529.05,1105.56 C2531.53,1105.56 2533.52,1103.56 2533.52,1101.08 C2533.52,1098.67 2531.53,1096.69 2529.13,1096.69"/>
<path class="Lyrics" d="M620.954,1741.04 C620.954,1736.58 620.173,1734.29 618.11,1732.59 C615.767,1730.67 612.298,1729.75 607.751,1729.75 C599.72,1729.75 593.907,1733.51 593.907,1738.7 C593.907,1741.33 595.532,1743.03 598.017,1743.03 C600.298,1743.03 601.86,1741.54 601.86,1739.4 C601.86,1738.48 601.501,1737.5 600.782,1736.5 C600.36,1736 600.298,1735.86 600.298,1735.5 C600.298,1734.09 603.126,1732.81 606.532,1732.81 C608.813,1732.81 611.298,1733.51 612.438,1734.58 C613.782,1735.72 614.282,1737.42 614.282,1740.62 L614.282,1743.39 C606.892,1744.67 604.548,1745.23 601.079,1746.58 C594.892,1748.86 591.985,1752.12 591.985,1756.67 C591.985,1761.78 595.954,1764.97 602.282,1764.97 C607.173,1764.97 611.579,1762.98 614.626,1759.36 C615.767,1762.98 617.548,1764.4 620.876,1764.4 C624.079,1764.4 627.407,1762.34 627.407,1760.28 C627.407,1759.78 627.126,1759.44 626.704,1759.44 C626.423,1759.44 626.142,1759.5 625.642,1759.72 C624.642,1760.14 624.22,1760.22 623.657,1760.22 C621.657,1760.22 620.954,1758.94 620.954,1755.31 L620.954,1741.04 M614.282,1749.7 C614.282,1753.97 614.063,1754.95 612.86,1756.81 C611.079,1759.44 607.892,1761.2 604.767,1761.2 C601.501,1761.2 599.157,1758.86 599.157,1755.67 C599.157,1752.69 600.642,1750.56 603.767,1749.06 C605.97,1748.08 608.735,1747.36 614.282,1746.44 L614.282,1749.7 "/>
<path class="Lyrics" d="M2082.68,1753.47 C2080.4,1758.58 2077.99,1760.64 2074.29,1760.64 C2068.62,1760.64 2065.07,1755.45 2065.07,1747.15 C2065.07,1738.48 2068.54,1732.81 2073.8,1732.81 C2075.93,1732.81 2077.77,1733.79 2077.77,1734.94 C2077.77,1735.15 2077.69,1735.36 2077.35,1735.79 C2076.21,1737.14 2075.93,1737.84 2075.93,1739.06 C2075.93,1741.4 2077.69,1743.03 2080.18,1743.03 C2082.74,1743.03 2084.52,1741.04 2084.52,1738.2 C2084.52,1733.37 2079.76,1729.75 2073.44,1729.75 C2064.21,1729.75 2057.6,1737.28 2057.6,1747.94 C2057.6,1758.01 2063.65,1764.97 2072.44,1764.97 C2078.77,1764.97 2082.38,1762.06 2085.44,1754.53 L2082.68,1753.47 M2100.77,1730.83 L2088.19,1731.61 L2088.19,1734.65 L2091.12,1734.65 C2093.8,1734.72 2094.16,1735.15 2094.16,1738.2 L2094.16,1758.51 C2094.1,1759.58 2094.02,1760 2093.74,1760.36 C2093.24,1761 2091.82,1761.28 2088.77,1761.34 L2088.49,1761.34 L2088.49,1763.9 L2107.44,1763.9 L2107.44,1761.34 L2106.16,1761.34 C2101.41,1761.2 2100.77,1760.86 2100.77,1758.29 L2100.77,1754.47 C2100.83,1742.53 2105.1,1733.45 2110.63,1733.15 C2109.65,1734.29 2109.37,1735.01 2109.37,1736.36 C2109.37,1738.62 2110.99,1740.26 2113.26,1740.26 C2115.9,1740.26 2117.6,1738.34 2117.6,1735.5 C2117.6,1732.03 2115.18,1729.75 2111.41,1729.75 C2106.94,1729.75 2103.12,1733.31 2100.77,1739.62 L2100.77,1730.83 M2135.76,1729.75 C2127.02,1729.75 2120.27,1737.5 2120.27,1747.44 C2120.27,1757.15 2127.1,1764.97 2135.62,1764.97 C2144.13,1764.97 2150.94,1757.15 2150.94,1747.36 C2150.94,1737.64 2144.13,1729.75 2135.76,1729.75 M2135.76,1732.81 C2140.73,1732.81 2143.49,1737.98 2143.49,1747.36 C2143.49,1756.81 2140.73,1761.92 2135.62,1761.92 C2130.51,1761.92 2127.74,1756.81 2127.74,1747.44 C2127.74,1737.78 2130.43,1732.81 2135.76,1732.81 M2181.05,1730.04 L2178.57,1730.04 L2176.51,1732.59 C2173.96,1730.61 2171.4,1729.75 2167.85,1729.75 C2161.6,1729.75 2157.49,1733.79 2157.49,1740.04 C2157.49,1746.72 2161.82,1748.42 2167.49,1749.78 L2171.26,1750.62 C2176.87,1751.98 2178.85,1753.39 2178.85,1756.23 C2178.85,1759.58 2175.94,1761.92 2171.82,1761.92 C2165.79,1761.92 2161.54,1758.08 2159.82,1750.98 L2156.99,1750.98 L2156.99,1764.4 L2159.48,1764.4 L2161.96,1761.5 C2164.87,1763.83 2168.07,1764.97 2171.68,1764.97 C2178.65,1764.97 2183.26,1760.64 2183.26,1754.03 C2183.26,1750.9 2182.26,1748.5 2180.27,1746.86 C2178.57,1745.37 2177.15,1744.81 2172.82,1743.89 L2169.27,1743.11 C2165.37,1742.25 2165.37,1742.25 2164.08,1741.54 C2162.52,1740.83 2161.6,1739.34 2161.6,1737.78 C2161.6,1734.87 2164.3,1732.87 2168.21,1732.87 C2174.02,1732.87 2176.87,1737 2178.57,1741.97 L2181.05,1741.97 L2181.05,1730.04 M2213.63,1730.04 L2211.15,1730.04 L2209.08,1732.59 C2206.54,1730.61 2203.98,1729.75 2200.43,1729.75 C2194.18,1729.75 2190.07,1733.79 2190.07,1740.04 C2190.07,1746.72 2194.4,1748.42 2200.07,1749.78 L2203.83,1750.62 C2209.44,1751.98 2211.43,1753.39 2211.43,1756.23 C2211.43,1759.58 2208.52,1761.92 2204.4,1761.92 C2198.37,1761.92 2194.12,1758.08 2192.4,1750.98 L2189.57,1750.98 L2189.57,1764.4 L2192.05,1764.4 L2194.54,1761.5 C2197.44,1763.83 2200.65,1764.97 2204.26,1764.97 C2211.23,1764.97 2215.83,1760.64 2215.83,1754.03 C2215.83,1750.9 2214.83,1748.5 2212.85,1746.86 C2211.15,1745.37 2209.73,1744.81 2205.4,1743.89 L2201.85,1743.11 C2197.94,1742.25 2197.94,1742.25 2196.66,1741.54 C2195.1,1740.83 2194.18,1739.34 2194.18,1737.78 C2194.18,1734.87 2196.88,1732.87 2200.79,1732.87 C2206.6,1732.87 2209.44,1737 2211.15,1741.97 L2213.63,1741.97 L2213.63,1730.04 "/>
<path class="Lyrics" d="M2035.79,1094.13 C2033.51,1099.24 2031.1,1101.3 2027.4,1101.3 C2021.73,1101.3 2018.18,1096.11 2018.18,1087.81 C2018.18,1079.14 2021.65,1073.47 2026.92,1073.47 C2029.04,1073.47 2030.89,1074.45 2030.89,1075.6 C2030.89,1075.81 2030.81,1076.02 2030.46,1076.45 C2029.32,1077.8 2029.04,1078.5 2029.04,1079.72 C2029.04,1082.06 2030.81,1083.69 2033.29,1083.69 C2035.85,1083.69 2037.64,1081.7 2037.64,1078.86 C2037.64,1074.03 2032.87,1070.41 2026.56,1070.41 C2017.32,1070.41 2010.71,1077.94 2010.71,1088.6 C2010.71,1098.67 2016.76,1105.63 2025.56,1105.63 C2031.89,1105.63 2035.5,1102.72 2038.56,1095.19 L2035.79,1094.13 M2053.89,1071.49 L2041.31,1072.27 L2041.31,1075.31 L2044.23,1075.31 C2046.92,1075.38 2047.28,1075.81 2047.28,1078.86 L2047.28,1099.17 C2047.21,1100.24 2047.14,1100.66 2046.85,1101.02 C2046.35,1101.66 2044.93,1101.94 2041.89,1102 L2041.6,1102 L2041.6,1104.56 L2060.56,1104.56 L2060.56,1102 L2059.28,1102 C2054.53,1101.86 2053.89,1101.52 2053.89,1098.95 L2053.89,1095.13 C2053.95,1083.19 2058.21,1074.11 2063.75,1073.81 C2062.76,1074.95 2062.48,1075.67 2062.48,1077.02 C2062.48,1079.28 2064.1,1080.92 2066.37,1080.92 C2069.01,1080.92 2070.71,1079 2070.71,1076.16 C2070.71,1072.69 2068.29,1070.41 2064.53,1070.41 C2060.06,1070.41 2056.23,1073.97 2053.89,1080.28 L2053.89,1071.49 M2088.87,1070.41 C2080.14,1070.41 2073.39,1078.16 2073.39,1088.1 C2073.39,1097.81 2080.21,1105.63 2088.73,1105.63 C2097.25,1105.63 2104.06,1097.81 2104.06,1088.02 C2104.06,1078.3 2097.25,1070.41 2088.87,1070.41 M2088.87,1073.47 C2093.84,1073.47 2096.6,1078.64 2096.6,1088.02 C2096.6,1097.47 2093.84,1102.58 2088.73,1102.58 C2083.62,1102.58 2080.85,1097.47 2080.85,1088.1 C2080.85,1078.44 2083.54,1073.47 2088.87,1073.47 M2134.17,1070.7 L2131.68,1070.7 L2129.62,1073.25 C2127.07,1071.27 2124.51,1070.41 2120.96,1070.41 C2114.71,1070.41 2110.6,1074.45 2110.6,1080.7 C2110.6,1087.38 2114.93,1089.08 2120.6,1090.44 L2124.37,1091.28 C2129.98,1092.64 2131.96,1094.05 2131.96,1096.89 C2131.96,1100.24 2129.06,1102.58 2124.93,1102.58 C2118.9,1102.58 2114.65,1098.74 2112.93,1091.64 L2110.1,1091.64 L2110.1,1105.06 L2112.59,1105.06 L2115.07,1102.16 C2117.98,1104.49 2121.18,1105.63 2124.79,1105.63 C2131.76,1105.63 2136.37,1101.3 2136.37,1094.69 C2136.37,1091.56 2135.37,1089.16 2133.39,1087.52 C2131.68,1086.03 2130.26,1085.47 2125.93,1084.55 L2122.39,1083.77 C2118.48,1082.91 2118.48,1082.91 2117.2,1082.2 C2115.64,1081.49 2114.71,1080 2114.71,1078.44 C2114.71,1075.53 2117.42,1073.53 2121.32,1073.53 C2127.14,1073.53 2129.98,1077.66 2131.68,1082.63 L2134.17,1082.63 L2134.17,1070.7 M2166.75,1070.7 L2164.26,1070.7 L2162.2,1073.25 C2159.65,1071.27 2157.09,1070.41 2153.54,1070.41 C2147.29,1070.41 2143.18,1074.45 2143.18,1080.7 C2143.18,1087.38 2147.51,1089.08 2153.18,1090.44 L2156.95,1091.28 C2162.56,1092.64 2164.54,1094.05 2164.54,1096.89 C2164.54,1100.24 2161.64,1102.58 2157.51,1102.58 C2151.48,1102.58 2147.23,1098.74 2145.51,1091.64 L2142.68,1091.64 L2142.68,1105.06 L2145.17,1105.06 L2147.65,1102.16 C2150.56,1104.49 2153.76,1105.63 2157.37,1105.63 C2164.34,1105.63 2168.95,1101.3 2168.95,1094.69 C2168.95,1091.56 2167.95,1089.16 2165.96,1087.52 C2164.26,1086.03 2162.84,1085.47 2158.51,1084.55 L2154.96,1083.77 C2151.06,1082.91 2151.06,1082.91 2149.78,1082.2 C2148.21,1081.49 2147.29,1080 2147.29,1078.44 C2147.29,1075.53 2150,1073.53 2153.9,1073.53 C2159.71,1073.53 2162.56,1077.66 2164.26,1082.63 L2166.75,1082.63 L2166.75,1070.7 "/>
<path class="Lyrics" d="M1866.6,1739.26 L1866.6,1755.17 C1866.6,1758.79 1866.6,1758.94 1866.16,1759.58 C1865.6,1760.28 1864.25,1760.56 1860.21,1760.56 L1858.92,1760.56 L1858.92,1763.9 L1882.21,1763.9 L1882.21,1760.56 L1880.94,1760.56 C1876.89,1760.56 1875.53,1760.28 1874.97,1759.58 C1874.55,1758.94 1874.55,1758.86 1874.55,1755.17 L1874.55,1721.37 C1874.55,1717.69 1874.55,1717.61 1874.97,1716.97 C1875.61,1716.19 1876.89,1715.98 1880.94,1715.98 L1882.21,1715.98 L1882.21,1712.64 L1859.21,1712.64 L1859.21,1715.98 L1860.21,1715.98 C1864.25,1715.98 1865.53,1716.19 1866.16,1716.97 C1866.6,1717.61 1866.6,1717.75 1866.6,1721.37 L1866.6,1735.44 L1842.8,1735.44 L1842.8,1721.37 C1842.8,1717.75 1842.8,1717.61 1843.3,1716.97 C1843.88,1716.19 1845.14,1715.98 1849.19,1715.98 L1850.55,1715.98 L1850.55,1712.64 L1827.19,1712.64 L1827.19,1715.98 L1828.47,1715.98 C1832.52,1715.98 1833.78,1716.19 1834.42,1716.97 C1834.86,1717.61 1834.86,1717.75 1834.86,1721.37 L1834.86,1755.17 C1834.86,1758.72 1834.86,1758.94 1834.42,1759.58 C1833.86,1760.28 1832.52,1760.56 1828.47,1760.56 L1827.19,1760.56 L1827.19,1763.9 L1850.55,1763.9 L1850.55,1760.56 L1849.19,1760.56 C1845.14,1760.5 1843.88,1760.28 1843.3,1759.58 C1842.8,1758.94 1842.8,1758.79 1842.8,1755.17 L1842.8,1739.26 L1866.6,1739.26 M1902.16,1729.75 C1893.42,1729.75 1886.67,1737.5 1886.67,1747.44 C1886.67,1757.15 1893.5,1764.97 1902.02,1764.97 C1910.53,1764.97 1917.35,1757.15 1917.35,1747.36 C1917.35,1737.64 1910.53,1729.75 1902.16,1729.75 M1902.16,1732.81 C1907.13,1732.81 1909.89,1737.98 1909.89,1747.36 C1909.89,1756.81 1907.13,1761.92 1902.02,1761.92 C1896.91,1761.92 1894.14,1756.81 1894.14,1747.44 C1894.14,1737.78 1896.83,1732.81 1902.16,1732.81 M1932.13,1730.83 L1932.13,1716.76 L1929.21,1716.76 C1928.5,1726 1925.38,1730.67 1919.63,1731.11 L1919.63,1733.87 L1925.44,1733.87 L1925.44,1751.98 C1925.44,1756.95 1925.58,1758.72 1926.3,1760.36 C1927.44,1763.34 1930.27,1764.97 1934.39,1764.97 C1940.78,1764.97 1944.89,1760.14 1944.89,1752.62 C1944.89,1752.19 1944.89,1751.69 1944.83,1750.98 L1941.85,1750.98 C1941.63,1757.37 1939.78,1760.64 1936.31,1760.64 C1934.67,1760.64 1933.25,1759.78 1932.75,1758.58 C1932.33,1757.59 1932.13,1755.81 1932.13,1753.25 L1932.13,1733.87 L1942.55,1733.87 L1942.55,1730.83 L1932.13,1730.83 "/>
<path class="Lyrics" d="M679.316,1079.92 L679.316,1095.83 C679.316,1099.45 679.316,1099.6 678.879,1100.24 C678.316,1100.94 676.972,1101.22 672.925,1101.22 L671.644,1101.22 L671.644,1104.56 L694.925,1104.56 L694.925,1101.22 L693.66,1101.22 C689.613,1101.22 688.254,1100.94 687.691,1100.24 C687.269,1099.6 687.269,1099.52 687.269,1095.83 L687.269,1062.03 C687.269,1058.35 687.269,1058.27 687.691,1057.63 C688.332,1056.85 689.613,1056.64 693.66,1056.64 L694.925,1056.64 L694.925,1053.3 L671.925,1053.3 L671.925,1056.64 L672.925,1056.64 C676.972,1056.64 678.254,1056.85 678.879,1057.63 C679.316,1058.27 679.316,1058.41 679.316,1062.03 L679.316,1076.1 L655.519,1076.1 L655.519,1062.03 C655.519,1058.41 655.519,1058.27 656.019,1057.63 C656.597,1056.85 657.863,1056.64 661.91,1056.64 L663.269,1056.64 L663.269,1053.3 L639.91,1053.3 L639.91,1056.64 L641.191,1056.64 C645.238,1056.64 646.504,1056.85 647.144,1057.63 C647.582,1058.27 647.582,1058.41 647.582,1062.03 L647.582,1095.83 C647.582,1099.38 647.582,1099.6 647.144,1100.24 C646.582,1100.94 645.238,1101.22 641.191,1101.22 L639.91,1101.22 L639.91,1104.56 L663.269,1104.56 L663.269,1101.22 L661.91,1101.22 C657.863,1101.16 656.597,1100.94 656.019,1100.24 C655.519,1099.6 655.519,1099.45 655.519,1095.83 L655.519,1079.92 L679.316,1079.92 M714.879,1070.41 C706.144,1070.41 699.394,1078.16 699.394,1088.1 C699.394,1097.81 706.222,1105.63 714.738,1105.63 C723.254,1105.63 730.066,1097.81 730.066,1088.02 C730.066,1078.3 723.254,1070.41 714.879,1070.41 M714.879,1073.47 C719.847,1073.47 722.613,1078.64 722.613,1088.02 C722.613,1097.47 719.847,1102.58 714.738,1102.58 C709.629,1102.58 706.863,1097.47 706.863,1088.1 C706.863,1078.44 709.55,1073.47 714.879,1073.47 M744.847,1071.49 L744.847,1057.42 L741.925,1057.42 C741.222,1066.66 738.097,1071.33 732.347,1071.77 L732.347,1074.53 L738.16,1074.53 L738.16,1092.64 C738.16,1097.61 738.3,1099.38 739.019,1101.02 C740.16,1104 742.988,1105.63 747.113,1105.63 C753.504,1105.63 757.613,1100.8 757.613,1093.28 C757.613,1092.85 757.613,1092.35 757.55,1091.64 L754.566,1091.64 C754.347,1098.03 752.504,1101.3 749.035,1101.3 C747.394,1101.3 745.972,1100.44 745.472,1099.24 C745.05,1098.25 744.847,1096.47 744.847,1093.91 L744.847,1074.53 L755.269,1074.53 L755.269,1071.49 L744.847,1071.49 "/>
<path class="Lyrics" d="M1344.34,1741.04 C1344.34,1736.58 1343.56,1734.29 1341.5,1732.59 C1339.15,1730.67 1335.68,1729.75 1331.14,1729.75 C1323.11,1729.75 1317.29,1733.51 1317.29,1738.7 C1317.29,1741.33 1318.92,1743.03 1321.4,1743.03 C1323.68,1743.03 1325.25,1741.54 1325.25,1739.4 C1325.25,1738.48 1324.89,1737.5 1324.17,1736.5 C1323.75,1736 1323.68,1735.86 1323.68,1735.5 C1323.68,1734.09 1326.51,1732.81 1329.92,1732.81 C1332.2,1732.81 1334.68,1733.51 1335.83,1734.58 C1337.17,1735.72 1337.67,1737.42 1337.67,1740.62 L1337.67,1743.39 C1330.28,1744.67 1327.93,1745.23 1324.47,1746.58 C1318.28,1748.86 1315.37,1752.12 1315.37,1756.67 C1315.37,1761.78 1319.34,1764.97 1325.67,1764.97 C1330.56,1764.97 1334.97,1762.98 1338.01,1759.36 C1339.15,1762.98 1340.93,1764.4 1344.26,1764.4 C1347.47,1764.4 1350.79,1762.34 1350.79,1760.28 C1350.79,1759.78 1350.51,1759.44 1350.09,1759.44 C1349.81,1759.44 1349.53,1759.5 1349.03,1759.72 C1348.03,1760.14 1347.61,1760.22 1347.04,1760.22 C1345.04,1760.22 1344.34,1758.94 1344.34,1755.31 L1344.34,1741.04 M1337.67,1749.7 C1337.67,1753.97 1337.45,1754.95 1336.25,1756.81 C1334.47,1759.44 1331.28,1761.2 1328.15,1761.2 C1324.89,1761.2 1322.54,1758.86 1322.54,1755.67 C1322.54,1752.69 1324.03,1750.56 1327.15,1749.06 C1329.36,1748.08 1332.12,1747.36 1337.67,1746.44 L1337.67,1749.7 "/>
<path class="Lyrics" d="M1454.06,1730.83 L1441.78,1731.61 L1441.78,1734.65 L1444.34,1734.65 C1447.03,1734.72 1447.39,1735.15 1447.39,1738.2 L1447.39,1772.92 C1447.32,1773.92 1447.24,1774.34 1446.96,1774.7 C1446.46,1775.34 1445.12,1775.62 1442.06,1775.69 L1441.78,1775.69 L1441.78,1778.25 L1460.24,1778.25 L1460.24,1775.69 L1459.46,1775.69 C1454.7,1775.54 1454.06,1775.19 1454.06,1772.64 L1454.06,1759.22 C1456.4,1763.34 1459.03,1764.97 1463.43,1764.97 C1472.87,1764.97 1477.78,1755.67 1477.78,1747.22 C1477.78,1739.2 1472.87,1729.75 1463.85,1729.75 C1459.46,1729.75 1456.54,1731.61 1454.06,1735.86 L1454.06,1730.83 M1462.59,1733.59 C1467.48,1733.59 1470.32,1738.48 1470.32,1746.79 C1470.32,1755.95 1467.48,1761.14 1462.37,1761.14 C1457.26,1761.14 1453.99,1755.89 1453.99,1747.72 C1453.99,1738.84 1457.18,1733.59 1462.59,1733.59 M1513.56,1747.94 C1513.62,1737.28 1507.59,1729.75 1498.93,1729.75 C1489.84,1729.75 1483.03,1737.64 1483.03,1748.28 C1483.03,1758.29 1489.49,1764.97 1499.07,1764.97 C1505.89,1764.97 1510.65,1761.64 1513.56,1754.89 L1511.07,1753.54 C1508.17,1759 1505.18,1761.14 1500.42,1761.14 C1496.81,1761.14 1494.17,1759.64 1492.32,1756.45 C1491.06,1754.33 1490.48,1751.84 1490.56,1747.94 L1513.56,1747.94 M1490.62,1744.87 C1490.62,1739.9 1492.9,1732.81 1498.85,1732.81 C1503.12,1732.81 1505.96,1736.58 1505.96,1742.33 C1505.96,1744.31 1505.32,1744.87 1503.04,1744.87 L1490.62,1744.87 M1530.24,1730.83 L1517.96,1731.61 L1517.96,1734.65 L1520.51,1734.65 C1523.21,1734.72 1523.57,1735.15 1523.57,1738.2 L1523.57,1758.51 C1523.49,1759.58 1523.43,1760 1523.14,1760.36 C1522.65,1761 1521.29,1761.28 1518.24,1761.34 L1517.96,1761.34 L1517.96,1763.9 L1535.92,1763.9 L1535.92,1761.34 L1535.64,1761.34 C1530.89,1761.2 1530.24,1760.86 1530.24,1758.29 L1530.24,1747.79 C1530.24,1744.31 1530.74,1741.11 1531.53,1739.48 C1533.01,1736.28 1536.2,1734.09 1539.26,1734.09 C1541.1,1734.09 1543.23,1735.08 1544.29,1736.58 C1545.37,1738.14 1545.85,1740.26 1545.85,1743.67 L1545.85,1758.51 C1545.79,1759.58 1545.71,1760 1545.43,1760.36 C1544.93,1761 1543.53,1761.28 1540.46,1761.34 L1540.18,1761.34 L1540.18,1763.9 L1558.15,1763.9 L1558.15,1761.34 L1557.85,1761.34 C1553.17,1761.2 1552.54,1760.86 1552.54,1758.29 L1552.54,1744.03 C1552.54,1738.92 1552.32,1737.64 1551.04,1735.22 C1549.28,1731.81 1545.71,1729.75 1541.46,1729.75 C1536.84,1729.75 1533.37,1731.89 1530.24,1736.58 L1530.24,1730.83 "/>
<path class="Lyrics" d="M927.268,1094.13 C924.987,1099.24 922.581,1101.3 918.878,1101.3 C913.206,1101.3 909.659,1096.11 909.659,1087.81 C909.659,1079.14 913.128,1073.47 918.393,1073.47 C920.518,1073.47 922.362,1074.45 922.362,1075.6 C922.362,1075.81 922.284,1076.02 921.94,1076.45 C920.799,1077.8 920.518,1078.5 920.518,1079.72 C920.518,1082.06 922.284,1083.69 924.768,1083.69 C927.331,1083.69 929.112,1081.7 929.112,1078.86 C929.112,1074.03 924.346,1070.41 918.034,1070.41 C908.799,1070.41 902.19,1077.94 902.19,1088.6 C902.19,1098.67 908.237,1105.63 917.034,1105.63 C923.362,1105.63 926.971,1102.72 930.034,1095.19 L927.268,1094.13 M945.362,1071.49 L932.784,1072.27 L932.784,1075.31 L935.706,1075.31 C938.393,1075.38 938.753,1075.81 938.753,1078.86 L938.753,1099.17 C938.69,1100.24 938.612,1100.66 938.331,1101.02 C937.831,1101.66 936.409,1101.94 933.362,1102 L933.081,1102 L933.081,1104.56 L952.034,1104.56 L952.034,1102 L950.753,1102 C946.003,1101.86 945.362,1101.52 945.362,1098.95 L945.362,1095.13 C945.424,1083.19 949.69,1074.11 955.221,1073.81 C954.237,1074.95 953.956,1075.67 953.956,1077.02 C953.956,1079.28 955.581,1080.92 957.846,1080.92 C960.487,1080.92 962.19,1079 962.19,1076.16 C962.19,1072.69 959.768,1070.41 956.003,1070.41 C951.534,1070.41 947.706,1073.97 945.362,1080.28 L945.362,1071.49 M980.346,1070.41 C971.612,1070.41 964.862,1078.16 964.862,1088.1 C964.862,1097.81 971.69,1105.63 980.206,1105.63 C988.721,1105.63 995.534,1097.81 995.534,1088.02 C995.534,1078.3 988.721,1070.41 980.346,1070.41 M980.346,1073.47 C985.315,1073.47 988.081,1078.64 988.081,1088.02 C988.081,1097.47 985.315,1102.58 980.206,1102.58 C975.096,1102.58 972.331,1097.47 972.331,1088.1 C972.331,1078.44 975.018,1073.47 980.346,1073.47 M1025.64,1070.7 L1023.16,1070.7 L1021.1,1073.25 C1018.55,1071.27 1015.99,1070.41 1012.44,1070.41 C1006.19,1070.41 1002.08,1074.45 1002.08,1080.7 C1002.08,1087.38 1006.41,1089.08 1012.08,1090.44 L1015.85,1091.28 C1021.46,1092.64 1023.44,1094.05 1023.44,1096.89 C1023.44,1100.24 1020.53,1102.58 1016.41,1102.58 C1010.38,1102.58 1006.13,1098.74 1004.41,1091.64 L1001.58,1091.64 L1001.58,1105.06 L1004.07,1105.06 L1006.55,1102.16 C1009.46,1104.49 1012.66,1105.63 1016.27,1105.63 C1023.24,1105.63 1027.85,1101.3 1027.85,1094.69 C1027.85,1091.56 1026.85,1089.16 1024.86,1087.52 C1023.16,1086.03 1021.74,1085.47 1017.41,1084.55 L1013.86,1083.77 C1009.96,1082.91 1009.96,1082.91 1008.67,1082.2 C1007.11,1081.49 1006.19,1080 1006.19,1078.44 C1006.19,1075.53 1008.89,1073.53 1012.8,1073.53 C1018.61,1073.53 1021.46,1077.66 1023.16,1082.63 L1025.64,1082.63 L1025.64,1070.7 M1058.22,1070.7 L1055.74,1070.7 L1053.67,1073.25 C1051.13,1071.27 1048.57,1070.41 1045.02,1070.41 C1038.77,1070.41 1034.66,1074.45 1034.66,1080.7 C1034.66,1087.38 1038.99,1089.08 1044.66,1090.44 L1048.42,1091.28 C1054.03,1092.64 1056.02,1094.05 1056.02,1096.89 C1056.02,1100.24 1053.11,1102.58 1048.99,1102.58 C1042.96,1102.58 1038.71,1098.74 1036.99,1091.64 L1034.16,1091.64 L1034.16,1105.06 L1036.64,1105.06 L1039.13,1102.16 C1042.03,1104.49 1045.24,1105.63 1048.85,1105.63 C1055.82,1105.63 1060.42,1101.3 1060.42,1094.69 C1060.42,1091.56 1059.42,1089.16 1057.44,1087.52 C1055.74,1086.03 1054.32,1085.47 1049.99,1084.55 L1046.44,1083.77 C1042.53,1082.91 1042.53,1082.91 1041.25,1082.2 C1039.69,1081.49 1038.77,1080 1038.77,1078.44 C1038.77,1075.53 1041.47,1073.53 1045.38,1073.53 C1051.19,1073.53 1054.03,1077.66 1055.74,1082.63 L1058.22,1082.63 L1058.22,1070.7 "/>
<path class="Lyrics" d="M1142.64,1712.64 L1100.11,1712.64 L1099.05,1732.37 L1102.11,1732.37 C1103.09,1725.22 1105.02,1715.98 1114.11,1715.98 C1116.45,1715.98 1117.44,1716.76 1117.44,1718.53 L1117.44,1755.17 C1117.44,1758.79 1117.44,1758.94 1117.02,1759.58 C1116.45,1760.28 1115.09,1760.56 1111.05,1760.56 L1109.2,1760.56 L1109.2,1763.9 L1133.56,1763.9 L1133.56,1760.56 L1131.72,1760.56 C1127.73,1760.56 1126.39,1760.28 1125.81,1759.58 C1125.39,1758.94 1125.39,1758.79 1125.39,1755.17 L1125.39,1718.53 C1125.39,1716.76 1126.39,1715.98 1128.73,1715.98 C1137.81,1715.98 1139.66,1725.28 1140.66,1732.37 L1143.7,1732.37 L1142.64,1712.64 M1185.45,1754.75 L1178.48,1736.5 C1178.28,1736 1178.2,1735.58 1178.2,1735.01 C1178.2,1733.73 1178.84,1733.37 1181.19,1733.37 L1182.89,1733.37 L1182.89,1730.83 L1166.98,1730.83 L1166.98,1733.37 L1168.19,1733.37 C1170.47,1733.45 1171.39,1734.01 1171.95,1736 L1172.53,1737.84 L1166.28,1754.39 L1159.39,1736.58 C1159.25,1736.08 1159.11,1735.44 1159.11,1735.01 C1159.11,1733.79 1159.89,1733.37 1162.02,1733.37 L1163.3,1733.37 L1163.3,1730.83 L1147.67,1730.83 L1147.67,1733.37 L1148.95,1733.37 C1150.94,1733.45 1151.86,1734.29 1152.64,1736.86 L1163.3,1764.97 L1165.78,1764.97 L1174.23,1742.53 L1182.89,1764.97 L1185.09,1764.97 L1195.03,1738.76 C1196.59,1734.58 1197.66,1733.45 1200.28,1733.37 L1200.78,1733.37 L1200.78,1730.83 L1187.36,1730.83 L1187.36,1733.37 L1188.56,1733.37 C1191.06,1733.37 1192.05,1734.09 1192.05,1736 C1192.05,1736.72 1191.83,1737.64 1191.48,1738.56 L1185.45,1754.75 M1217.89,1729.75 C1209.16,1729.75 1202.41,1737.5 1202.41,1747.44 C1202.41,1757.15 1209.23,1764.97 1217.75,1764.97 C1226.27,1764.97 1233.08,1757.15 1233.08,1747.36 C1233.08,1737.64 1226.27,1729.75 1217.89,1729.75 M1217.89,1732.81 C1222.86,1732.81 1225.62,1737.98 1225.62,1747.36 C1225.62,1756.81 1222.86,1761.92 1217.75,1761.92 C1212.64,1761.92 1209.87,1756.81 1209.87,1747.44 C1209.87,1737.78 1212.56,1732.81 1217.89,1732.81"/>
<path class="Lyrics" d="M1642.31,1730.83 L1630.03,1731.61 L1630.03,1734.65 L1632.58,1734.65 C1635.28,1734.72 1635.64,1735.15 1635.64,1738.2 L1635.64,1758.51 C1635.56,1759.58 1635.5,1760 1635.2,1760.36 C1634.72,1761 1633.36,1761.28 1630.31,1761.34 L1630.03,1761.34 L1630.03,1763.9 L1647.98,1763.9 L1647.98,1761.34 L1647.7,1761.34 C1642.95,1761.2 1642.31,1760.86 1642.31,1758.29 L1642.31,1747.79 C1642.31,1744.31 1642.81,1741.11 1643.59,1739.48 C1645.08,1736.28 1648.27,1734.09 1651.33,1734.09 C1653.17,1734.09 1655.3,1735.08 1656.36,1736.58 C1657.44,1738.14 1657.92,1740.26 1657.92,1743.67 L1657.92,1758.51 C1657.86,1759.58 1657.78,1760 1657.5,1760.36 C1657,1761 1655.59,1761.28 1652.53,1761.34 L1652.25,1761.34 L1652.25,1763.9 L1670.22,1763.9 L1670.22,1761.34 L1669.92,1761.34 C1665.23,1761.2 1664.61,1760.86 1664.61,1758.29 L1664.61,1744.03 C1664.61,1738.92 1664.39,1737.64 1663.11,1735.22 C1661.34,1731.81 1657.78,1729.75 1653.53,1729.75 C1648.91,1729.75 1645.44,1731.89 1642.31,1736.58 L1642.31,1730.83 M1689.73,1754.89 L1681.92,1736.64 C1681.64,1735.94 1681.5,1735.58 1681.5,1735.22 C1681.5,1733.87 1682.36,1733.37 1684.77,1733.37 L1686.27,1733.37 L1686.27,1730.83 L1669.36,1730.83 L1669.36,1733.37 L1670.14,1733.37 C1672.56,1733.45 1673.48,1734.15 1674.97,1737.2 L1686.55,1763.4 L1685.33,1765.89 C1682.78,1771.29 1679.44,1775.04 1677.17,1775.04 C1676.53,1775.04 1676.03,1774.76 1676.03,1774.34 C1676.03,1774.2 1676.11,1773.98 1676.17,1773.7 C1676.39,1773.06 1676.53,1772.42 1676.53,1771.86 C1676.53,1770.01 1675.05,1768.65 1672.91,1768.65 C1670.42,1768.65 1668.66,1770.51 1668.66,1773.06 C1668.66,1776.26 1671.34,1778.53 1675.11,1778.53 C1678.87,1778.53 1682.06,1776.69 1684.91,1772.86 C1687.11,1769.94 1688.53,1766.95 1691.66,1759.22 L1699.75,1739.12 C1701.37,1735.01 1702.94,1733.45 1705.72,1733.37 L1706.14,1733.37 L1706.14,1730.83 L1691.94,1730.83 L1691.94,1733.37 L1693.08,1733.37 C1695.77,1733.37 1696.91,1734.15 1696.91,1736 C1696.91,1736.78 1696.69,1737.64 1696.2,1738.84 L1689.73,1754.89 M1717.14,1750.34 C1717.2,1737.78 1717.5,1734.29 1718.84,1727.62 C1719.84,1722.73 1720.12,1720.53 1720.12,1718.39 C1720.12,1713.86 1718.7,1711.65 1715.8,1711.65 C1712.87,1711.65 1711.39,1713.92 1711.39,1718.33 C1711.39,1720.45 1711.67,1722.65 1712.67,1727.62 C1714.02,1734.29 1714.23,1737.64 1714.37,1750.34 L1717.14,1750.34 M1715.8,1756.03 C1713.31,1756.03 1711.31,1758.01 1711.31,1760.42 C1711.31,1762.9 1713.31,1764.9 1715.72,1764.9 C1718.2,1764.9 1720.19,1762.9 1720.19,1760.42 C1720.19,1758.01 1718.2,1756.03 1715.8,1756.03"/>
<path class="Lyrics" d="M1787.84,1079.92 L1787.84,1095.83 C1787.84,1099.45 1787.84,1099.6 1787.4,1100.24 C1786.84,1100.94 1785.5,1101.22 1781.45,1101.22 L1780.17,1101.22 L1780.17,1104.56 L1803.45,1104.56 L1803.45,1101.22 L1802.18,1101.22 C1798.14,1101.22 1796.78,1100.94 1796.21,1100.24 C1795.79,1099.6 1795.79,1099.52 1795.79,1095.83 L1795.79,1062.03 C1795.79,1058.35 1795.79,1058.27 1796.21,1057.63 C1796.86,1056.85 1798.14,1056.64 1802.18,1056.64 L1803.45,1056.64 L1803.45,1053.3 L1780.45,1053.3 L1780.45,1056.64 L1781.45,1056.64 C1785.5,1056.64 1786.78,1056.85 1787.4,1057.63 C1787.84,1058.27 1787.84,1058.41 1787.84,1062.03 L1787.84,1076.1 L1764.04,1076.1 L1764.04,1062.03 C1764.04,1058.41 1764.04,1058.27 1764.54,1057.63 C1765.12,1056.85 1766.39,1056.64 1770.43,1056.64 L1771.79,1056.64 L1771.79,1053.3 L1748.43,1053.3 L1748.43,1056.64 L1749.71,1056.64 C1753.76,1056.64 1755.03,1056.85 1755.67,1057.63 C1756.11,1058.27 1756.11,1058.41 1756.11,1062.03 L1756.11,1095.83 C1756.11,1099.38 1756.11,1099.6 1755.67,1100.24 C1755.11,1100.94 1753.76,1101.22 1749.71,1101.22 L1748.43,1101.22 L1748.43,1104.56 L1771.79,1104.56 L1771.79,1101.22 L1770.43,1101.22 C1766.39,1101.16 1765.12,1100.94 1764.54,1100.24 C1764.04,1099.6 1764.04,1099.45 1764.04,1095.83 L1764.04,1079.92 L1787.84,1079.92 M1823.4,1070.41 C1814.67,1070.41 1807.92,1078.16 1807.92,1088.1 C1807.92,1097.81 1814.75,1105.63 1823.26,1105.63 C1831.78,1105.63 1838.59,1097.81 1838.59,1088.02 C1838.59,1078.3 1831.78,1070.41 1823.4,1070.41 M1823.4,1073.47 C1828.37,1073.47 1831.14,1078.64 1831.14,1088.02 C1831.14,1097.47 1828.37,1102.58 1823.26,1102.58 C1818.15,1102.58 1815.39,1097.47 1815.39,1088.1 C1815.39,1078.44 1818.07,1073.47 1823.4,1073.47 M1853.37,1071.49 L1853.37,1057.42 L1850.45,1057.42 C1849.75,1066.66 1846.62,1071.33 1840.87,1071.77 L1840.87,1074.53 L1846.68,1074.53 L1846.68,1092.64 C1846.68,1097.61 1846.82,1099.38 1847.54,1101.02 C1848.68,1104 1851.51,1105.63 1855.64,1105.63 C1862.03,1105.63 1866.14,1100.8 1866.14,1093.28 C1866.14,1092.85 1866.14,1092.35 1866.07,1091.64 L1863.09,1091.64 C1862.87,1098.03 1861.03,1101.3 1857.56,1101.3 C1855.92,1101.3 1854.5,1100.44 1854,1099.24 C1853.57,1098.25 1853.37,1096.47 1853.37,1093.91 L1853.37,1074.53 L1863.79,1074.53 L1863.79,1071.49 L1853.37,1071.49 "/>
<path class="Lyrics" d="M917.152,1730.83 L904.871,1731.61 L904.871,1734.65 L907.418,1734.65 C910.121,1734.72 910.48,1735.15 910.48,1738.2 L910.48,1758.51 C910.402,1759.58 910.34,1760 910.043,1760.36 C909.558,1761 908.199,1761.28 905.152,1761.34 L904.871,1761.34 L904.871,1763.9 L922.824,1763.9 L922.824,1761.34 L922.543,1761.34 C917.793,1761.2 917.152,1760.86 917.152,1758.29 L917.152,1747.79 C917.152,1744.31 917.652,1741.11 918.433,1739.48 C919.918,1736.28 923.105,1734.09 926.168,1734.09 C928.011,1734.09 930.136,1735.08 931.199,1736.58 C932.277,1738.14 932.761,1740.26 932.761,1743.67 L932.761,1758.51 C932.699,1759.58 932.621,1760 932.34,1760.36 C931.84,1761 930.433,1761.28 927.371,1761.34 L927.09,1761.34 L927.09,1763.9 L945.058,1763.9 L945.058,1761.34 L944.761,1761.34 C940.074,1761.2 939.449,1760.86 939.449,1758.29 L939.449,1744.03 C939.449,1738.92 939.23,1737.64 937.949,1735.22 C936.183,1731.81 932.621,1729.75 928.371,1729.75 C923.746,1729.75 920.277,1731.89 917.152,1736.58 L917.152,1730.83 M964.574,1754.89 L956.761,1736.64 C956.48,1735.94 956.34,1735.58 956.34,1735.22 C956.34,1733.87 957.199,1733.37 959.605,1733.37 L961.105,1733.37 L961.105,1730.83 L944.199,1730.83 L944.199,1733.37 L944.98,1733.37 C947.402,1733.45 948.324,1734.15 949.808,1737.2 L961.386,1763.4 L960.168,1765.89 C957.621,1771.29 954.277,1775.04 952.011,1775.04 C951.371,1775.04 950.871,1774.76 950.871,1774.34 C950.871,1774.2 950.949,1773.98 951.011,1773.7 C951.23,1773.06 951.371,1772.42 951.371,1771.86 C951.371,1770.01 949.886,1768.65 947.746,1768.65 C945.261,1768.65 943.496,1770.51 943.496,1773.06 C943.496,1776.26 946.183,1778.53 949.949,1778.53 C953.715,1778.53 956.902,1776.69 959.746,1772.86 C961.949,1769.94 963.371,1766.95 966.496,1759.22 L974.59,1739.12 C976.215,1735.01 977.777,1733.45 980.558,1733.37 L980.98,1733.37 L980.98,1730.83 L966.777,1730.83 L966.777,1733.37 L967.918,1733.37 C970.605,1733.37 971.746,1734.15 971.746,1736 C971.746,1736.78 971.527,1737.64 971.043,1738.84 L964.574,1754.89 "/>
<path class="Lyrics" d="M730.67,1730.83 L718.389,1731.61 L718.389,1734.65 L720.952,1734.65 C723.639,1734.72 723.998,1735.15 723.998,1738.2 L723.998,1772.92 C723.936,1773.92 723.858,1774.34 723.577,1774.7 C723.077,1775.34 721.733,1775.62 718.67,1775.69 L718.389,1775.69 L718.389,1778.25 L736.858,1778.25 L736.858,1775.69 L736.077,1775.69 C731.311,1775.54 730.67,1775.19 730.67,1772.64 L730.67,1759.22 C733.014,1763.34 735.639,1764.97 740.045,1764.97 C749.483,1764.97 754.389,1755.67 754.389,1747.22 C754.389,1739.2 749.483,1729.75 740.467,1729.75 C736.077,1729.75 733.155,1731.61 730.67,1735.86 L730.67,1730.83 M739.202,1733.59 C744.092,1733.59 746.936,1738.48 746.936,1746.79 C746.936,1755.95 744.092,1761.14 738.983,1761.14 C733.873,1761.14 730.608,1755.89 730.608,1747.72 C730.608,1738.84 733.795,1733.59 739.202,1733.59 M790.17,1747.94 C790.233,1737.28 784.202,1729.75 775.545,1729.75 C766.452,1729.75 759.639,1737.64 759.639,1748.28 C759.639,1758.29 766.108,1764.97 775.686,1764.97 C782.498,1764.97 787.264,1761.64 790.17,1754.89 L787.686,1753.54 C784.78,1759 781.795,1761.14 777.03,1761.14 C773.42,1761.14 770.78,1759.64 768.936,1756.45 C767.67,1754.33 767.092,1751.84 767.17,1747.94 L790.17,1747.94 M767.233,1744.87 C767.233,1739.9 769.514,1732.81 775.467,1732.81 C779.733,1732.81 782.577,1736.58 782.577,1742.33 C782.577,1744.31 781.936,1744.87 779.655,1744.87 L767.233,1744.87 M806.858,1730.83 L794.577,1731.61 L794.577,1734.65 L797.123,1734.65 C799.827,1734.72 800.186,1735.15 800.186,1738.2 L800.186,1758.51 C800.108,1759.58 800.045,1760 799.748,1760.36 C799.264,1761 797.905,1761.28 794.858,1761.34 L794.577,1761.34 L794.577,1763.9 L812.53,1763.9 L812.53,1761.34 L812.248,1761.34 C807.498,1761.2 806.858,1760.86 806.858,1758.29 L806.858,1747.79 C806.858,1744.31 807.358,1741.11 808.139,1739.48 C809.623,1736.28 812.811,1734.09 815.873,1734.09 C817.717,1734.09 819.842,1735.08 820.905,1736.58 C821.983,1738.14 822.467,1740.26 822.467,1743.67 L822.467,1758.51 C822.405,1759.58 822.327,1760 822.045,1760.36 C821.545,1761 820.139,1761.28 817.077,1761.34 L816.795,1761.34 L816.795,1763.9 L834.764,1763.9 L834.764,1761.34 L834.467,1761.34 C829.78,1761.2 829.155,1760.86 829.155,1758.29 L829.155,1744.03 C829.155,1738.92 828.936,1737.64 827.655,1735.22 C825.889,1731.81 822.327,1729.75 818.077,1729.75 C813.452,1729.75 809.983,1731.89 806.858,1736.58 L806.858,1730.83 "/>
<polyline class="LyricsLineSegment" fill="none" stroke="#000000" stroke-width="3.56" stroke-linejoin="bevel" points="1580.19,1744.05 1608.71,1744.05"/>
<polyline class="LyricsLineSegment" fill="none" stroke="#000000" stroke-width="3.56" stroke-linejoin="bevel" points="535.332,1744.05 563.844,1744.05"/>
<polyline class="LyricsLineSegment" fill="none" stroke="#000000" stroke-width="3.56" stroke-linejoin="bevel" points="658.376,1744.05 686.888,1744.05"/>
<polyline class="LyricsLineSegment" fill="none" stroke="#000000" stroke-width="3.56" stroke-linejoin="bevel" points="855.921,1744.05 884.433,1744.05"/>
<polyline class="LyricsLineSegment" fill="none" stroke="#000000" stroke-width="3.56" stroke-linejoin="bevel" points="1260.22,1744.05 1288.73,1744.05"/>
<polyline class="LyricsLineSegment" fill="none" stroke="#000000" stroke-width="3.56" stroke-linejoin="bevel" points="1381.76,1744.05 1410.28,1744.05"/>
</svg>
